<?xml version="1.0" encoding="UTF-8" standalone="no"?>
<!-- Created with Inkscape (http://www.inkscape.org/) -->

<svg
   version="1.1"
   id="svg824"
   xml:space="preserve"
   width="299.99954"
   height="165.939"
   viewBox="0 0 299.99955 165.939"
   sodipodi:docname="01_MassSpringDamper.svg"
   inkscape:version="1.1 (c68e22c387, 2021-05-23)"
   xmlns:inkscape="http://www.inkscape.org/namespaces/inkscape"
   xmlns:sodipodi="http://sodipodi.sourceforge.net/DTD/sodipodi-0.dtd"
   xmlns:xlink="http://www.w3.org/1999/xlink"
   xmlns="http://www.w3.org/2000/svg"
   xmlns:svg="http://www.w3.org/2000/svg"><defs
     id="defs828"><inkscape:path-effect
   effect="bspline"
   id="path-effect3656"
   is_visible="true"
   lpeversion="1"
   weight="33.333333"
   steps="2"
   helper_size="0"
   apply_no_weight="true"
   apply_with_weight="true"
   only_selected="false" /><inkscape:path-effect
   effect="bspline"
   id="path-effect2329"
   is_visible="true"
   lpeversion="1"
   weight="33.333333"
   steps="2"
   helper_size="0"
   apply_no_weight="true"
   apply_with_weight="true"
   only_selected="false" /><clipPath
   clipPathUnits="userSpaceOnUse"
   id="clipPath852"><path
     d="m 156.8,464.16 h 479.99999 v 32.96 H 156.8 Z"
     clip-rule="evenodd"
     id="path850" /></clipPath><clipPath
   clipPathUnits="userSpaceOnUse"
   id="clipPath874"><path
     d="M 156.8,137.11999 V 497.12 H 636.79999 V 137.11999 Z"
     clip-rule="evenodd"
     id="path872" /></clipPath><clipPath
   clipPathUnits="userSpaceOnUse"
   id="clipPath900"><path
     d="M 156.8,137.11999 V 497.12 H 636.79999 V 137.11999 Z"
     clip-rule="evenodd"
     id="path898" /></clipPath><clipPath
   clipPathUnits="userSpaceOnUse"
   id="clipPath928"><path
     d="m 344,198.56 h 12 v 54.08 h -12 z"
     clip-rule="evenodd"
     id="path926" /></clipPath><clipPath
   clipPathUnits="userSpaceOnUse"
   id="clipPath934"><path
     d="m 343.67999,198.24 h 12.64002 v 54.72001 h -12.64002 z"
     clip-rule="evenodd"
     id="path932" /></clipPath><clipPath
   clipPathUnits="userSpaceOnUse"
   id="clipPath946"><path
     d="M 156.8,137.11999 V 497.12 H 636.79999 V 137.11999 Z"
     clip-rule="evenodd"
     id="path944" /></clipPath><clipPath
   clipPathUnits="userSpaceOnUse"
   id="clipPath960"><path
     d="m 452.32001,279.35999 h 20.16 V 299.84 h -20.16 z"
     clip-rule="evenodd"
     id="path958" /></clipPath><clipPath
   clipPathUnits="userSpaceOnUse"
   id="clipPath972"><path
     d="M 373.60001,290.39999 H 433.28 v 11.68 h -59.67999 z"
     clip-rule="evenodd"
     id="path970" /></clipPath><clipPath
   clipPathUnits="userSpaceOnUse"
   id="clipPath984"><path
     d="M 322.07999,279.35999 H 472.48001 V 299.84 H 322.07999 Z"
     clip-rule="evenodd"
     id="path982" /></clipPath><clipPath
   clipPathUnits="userSpaceOnUse"
   id="clipPath996"><path
     d="M 348.95999,279.35999 H 461.28 v 20.16 H 348.95999 Z"
     clip-rule="evenodd"
     id="path994" /></clipPath><clipPath
   clipPathUnits="userSpaceOnUse"
   id="clipPath1012"><path
     d="M -296.64001,-87.68 V 272.32001 H 183.36 V -87.68 Z"
     clip-rule="evenodd"
     id="path1010" /></clipPath><clipPath
   clipPathUnits="userSpaceOnUse"
   id="clipPath1046"><path
     d="M 156.8,137.11999 V 497.12 H 636.79999 V 137.11999 Z"
     clip-rule="evenodd"
     id="path1044" /></clipPath><clipPath
   clipPathUnits="userSpaceOnUse"
   id="clipPath1200"><path
     d="m 603.67999,464 h 22.23999 v 22.23999 h -22.23999 z"
     clip-rule="evenodd"
     id="path1198" /></clipPath><clipPath
   clipPathUnits="userSpaceOnUse"
   id="clipPath1220"><path
     d="m 156.8,952.32001 h 479.99999 v 32.96002 H 156.8 Z"
     clip-rule="evenodd"
     id="path1218" /></clipPath><clipPath
   clipPathUnits="userSpaceOnUse"
   id="clipPath1392"><path
     d="m 603.67999,952.15997 h 22.23999 v 22.24005 h -22.23999 z"
     clip-rule="evenodd"
     id="path1390" /></clipPath><g
   id="g6692">
      <symbol
   overflow="visible"
   id="symbol1298">
        <path
   style="stroke:none"
   d=""
   id="path3627" />
      </symbol>
      <symbol
   overflow="visible"
   id="symbol9159">
        <path
   style="stroke:none"
   d="m 3.015625,-3.234375 h 0.96875 c 0.75,0 0.828125,0.15625 0.828125,0.4375 0,0.078125 0,0.1875 -0.0625,0.5 C 4.71875,-2.25 4.71875,-2.21875 4.71875,-2.1875 c 0,0.078125 0.0625,0.109375 0.109375,0.109375 0.109375,0 0.109375,-0.03125 0.15625,-0.203125 L 5.53125,-4.453125 C 5.5625,-4.5625 5.5625,-4.578125 5.5625,-4.609375 5.5625,-4.625 5.546875,-4.71875 5.4375,-4.71875 5.34375,-4.71875 5.328125,-4.671875 5.296875,-4.5 5.078125,-3.734375 4.859375,-3.546875 4,-3.546875 H 3.09375 l 0.640625,-2.53125 C 3.828125,-6.4375 3.84375,-6.46875 4.28125,-6.46875 h 1.3125 c 1.21875,0 1.453125,0.328125 1.453125,1.09375 0,0.234375 0,0.265625 -0.03125,0.546875 C 7,-4.703125 7,-4.6875 7,-4.65625 c 0,0.046875 0.03125,0.125 0.125,0.125 0.109375,0 0.109375,-0.0625 0.125,-0.25 L 7.453125,-6.515625 C 7.484375,-6.78125 7.4375,-6.78125 7.1875,-6.78125 H 2.296875 c -0.1875,0 -0.296875,0 -0.296875,0.203125 0,0.109375 0.09375,0.109375 0.28125,0.109375 0.375,0 0.65625,0 0.65625,0.171875 0,0.046875 0,0.0625 -0.0625,0.25 L 1.5625,-0.78125 c -0.09375,0.390625 -0.109375,0.46875 -0.90625,0.46875 -0.171875,0 -0.28125,0 -0.28125,0.1875 C 0.375,0 0.5,0 0.53125,0 0.8125,0 1.5625,-0.03125 1.84375,-0.03125 2.171875,-0.03125 3,0 3.328125,0 3.421875,0 3.53125,0 3.53125,-0.1875 3.53125,-0.265625 3.484375,-0.296875 3.484375,-0.296875 3.453125,-0.3125 3.421875,-0.3125 3.203125,-0.3125 c -0.21875,0 -0.265625,0 -0.515625,-0.015625 -0.296875,-0.03125 -0.328125,-0.078125 -0.328125,-0.203125 0,-0.015625 0,-0.078125 0.046875,-0.21875 z m 0,0"
   id="path1211" />
      </symbol>
      <symbol
   overflow="visible"
   id="symbol6340">
        <path
   style="stroke:none"
   d="m 2.046875,-3.984375 h 0.9375 c 0.203125,0 0.3125,0 0.3125,-0.203125 0,-0.109375 -0.109375,-0.109375 -0.28125,-0.109375 h -0.875 C 2.5,-5.71875 2.546875,-5.90625 2.546875,-5.96875 c 0,-0.171875 -0.125,-0.265625 -0.296875,-0.265625 -0.03125,0 -0.3125,0 -0.390625,0.359375 L 1.46875,-4.296875 h -0.9375 c -0.203125,0 -0.296875,0 -0.296875,0.1875 0,0.125 0.078125,0.125 0.28125,0.125 h 0.875 C 0.671875,-1.15625 0.625,-0.984375 0.625,-0.8125 0.625,-0.265625 1,0.109375 1.546875,0.109375 2.5625,0.109375 3.125,-1.34375 3.125,-1.421875 3.125,-1.53125 3.046875,-1.53125 3.015625,-1.53125 2.921875,-1.53125 2.90625,-1.5 2.859375,-1.390625 2.4375,-0.34375 1.90625,-0.109375 1.5625,-0.109375 c -0.203125,0 -0.3125,-0.125 -0.3125,-0.453125 0,-0.25 0.03125,-0.3125 0.0625,-0.484375 z m 0,0"
   id="path3618" />
      </symbol>
      <symbol
   overflow="visible"
   id="symbol6736">
        <path
   style="stroke:none"
   d=""
   id="path3279" />
      </symbol>
      <symbol
   overflow="visible"
   id="symbol9142">
        <path
   style="stroke:none"
   d="m 3.296875,2.390625 c 0,-0.03125 0,-0.046875 -0.171875,-0.21875 C 1.890625,0.921875 1.5625,-0.96875 1.5625,-2.5 c 0,-1.734375 0.375,-3.46875 1.609375,-4.703125 0.125,-0.125 0.125,-0.140625 0.125,-0.171875 0,-0.078125 -0.03125,-0.109375 -0.09375,-0.109375 -0.109375,0 -1,0.6875 -1.59375,1.953125 -0.5,1.09375 -0.625,2.203125 -0.625,3.03125 0,0.78125 0.109375,1.984375 0.65625,3.125 C 2.25,1.84375 3.09375,2.5 3.203125,2.5 c 0.0625,0 0.09375,-0.03125 0.09375,-0.109375 z m 0,0"
   id="path9693" />
      </symbol>
      <symbol
   overflow="visible"
   id="symbol872">
        <path
   style="stroke:none"
   d="m 2.875,-2.5 c 0,-0.765625 -0.109375,-1.96875 -0.65625,-3.109375 -0.59375,-1.21875 -1.453125,-1.875 -1.546875,-1.875 -0.0625,0 -0.109375,0.046875 -0.109375,0.109375 0,0.03125 0,0.046875 0.1875,0.234375 0.984375,0.984375 1.546875,2.5625 1.546875,4.640625 0,1.71875 -0.359375,3.46875 -1.59375,4.71875 C 0.5625,2.34375 0.5625,2.359375 0.5625,2.390625 0.5625,2.453125 0.609375,2.5 0.671875,2.5 0.765625,2.5 1.671875,1.8125 2.25,0.546875 2.765625,-0.546875 2.875,-1.65625 2.875,-2.5 Z m 0,0"
   id="path9614" />
      </symbol>
    </g>
  <g
   id="g4162">
      <symbol
   overflow="visible"
   id="symbol6099">
        <path
   style="stroke:none"
   d=""
   id="path8631" />
      </symbol>
      <symbol
   overflow="visible"
   id="symbol6646">
        <path
   style="stroke:none"
   d="M 3.328125,-3.015625 C 3.390625,-3.265625 3.625,-4.1875 4.3125,-4.1875 c 0.046875,0 0.296875,0 0.5,0.125 C 4.53125,-4 4.34375,-3.765625 4.34375,-3.515625 c 0,0.15625 0.109375,0.34375 0.375,0.34375 0.21875,0 0.53125,-0.171875 0.53125,-0.578125 0,-0.515625 -0.578125,-0.65625 -0.921875,-0.65625 -0.578125,0 -0.921875,0.53125 -1.046875,0.75 -0.25,-0.65625 -0.78125,-0.75 -1.078125,-0.75 -1.03125,0 -1.609375,1.28125 -1.609375,1.53125 0,0.109375 0.109375,0.109375 0.125,0.109375 0.078125,0 0.109375,-0.03125 0.125,-0.109375 0.34375,-1.0625 1,-1.3125 1.34375,-1.3125 0.1875,0 0.53125,0.09375 0.53125,0.671875 0,0.3125 -0.171875,0.96875 -0.53125,2.375 -0.15625,0.609375 -0.515625,1.03125 -0.953125,1.03125 -0.0625,0 -0.28125,0 -0.5,-0.125 0.25,-0.0625 0.46875,-0.265625 0.46875,-0.546875 0,-0.265625 -0.21875,-0.34375 -0.359375,-0.34375 -0.3125,0 -0.546875,0.25 -0.546875,0.578125 0,0.453125 0.484375,0.65625 0.921875,0.65625 0.671875,0 1.03125,-0.703125 1.046875,-0.75 0.125,0.359375 0.484375,0.75 1.078125,0.75 1.03125,0 1.59375,-1.28125 1.59375,-1.53125 0,-0.109375 -0.078125,-0.109375 -0.109375,-0.109375 -0.09375,0 -0.109375,0.046875 -0.140625,0.109375 -0.328125,1.078125 -1,1.3125 -1.3125,1.3125 -0.390625,0 -0.546875,-0.3125 -0.546875,-0.65625 0,-0.21875 0.046875,-0.4375 0.15625,-0.875 z m 0,0"
   id="path2532" />
      </symbol>
      <symbol
   overflow="visible"
   id="symbol1802">
        <path
   style="stroke:none"
   d="m 2.046875,-3.984375 h 0.9375 c 0.203125,0 0.3125,0 0.3125,-0.203125 0,-0.109375 -0.109375,-0.109375 -0.28125,-0.109375 h -0.875 C 2.5,-5.71875 2.546875,-5.90625 2.546875,-5.96875 c 0,-0.171875 -0.125,-0.265625 -0.296875,-0.265625 -0.03125,0 -0.3125,0 -0.390625,0.359375 L 1.46875,-4.296875 h -0.9375 c -0.203125,0 -0.296875,0 -0.296875,0.1875 0,0.125 0.078125,0.125 0.28125,0.125 h 0.875 C 0.671875,-1.15625 0.625,-0.984375 0.625,-0.8125 0.625,-0.265625 1,0.109375 1.546875,0.109375 2.5625,0.109375 3.125,-1.34375 3.125,-1.421875 3.125,-1.53125 3.046875,-1.53125 3.015625,-1.53125 2.921875,-1.53125 2.90625,-1.5 2.859375,-1.390625 2.4375,-0.34375 1.90625,-0.109375 1.5625,-0.109375 c -0.203125,0 -0.3125,-0.125 -0.3125,-0.453125 0,-0.25 0.03125,-0.3125 0.0625,-0.484375 z m 0,0"
   id="path2061" />
      </symbol>
      <symbol
   overflow="visible"
   id="symbol542">
        <path
   style="stroke:none"
   d=""
   id="path7713" />
      </symbol>
      <symbol
   overflow="visible"
   id="symbol8597">
        <path
   style="stroke:none"
   d="m 3.296875,2.390625 c 0,-0.03125 0,-0.046875 -0.171875,-0.21875 C 1.890625,0.921875 1.5625,-0.96875 1.5625,-2.5 c 0,-1.734375 0.375,-3.46875 1.609375,-4.703125 0.125,-0.125 0.125,-0.140625 0.125,-0.171875 0,-0.078125 -0.03125,-0.109375 -0.09375,-0.109375 -0.109375,0 -1,0.6875 -1.59375,1.953125 -0.5,1.09375 -0.625,2.203125 -0.625,3.03125 0,0.78125 0.109375,1.984375 0.65625,3.125 C 2.25,1.84375 3.09375,2.5 3.203125,2.5 c 0.0625,0 0.09375,-0.03125 0.09375,-0.109375 z m 0,0"
   id="path5005" />
      </symbol>
      <symbol
   overflow="visible"
   id="symbol4532">
        <path
   style="stroke:none"
   d="m 2.875,-2.5 c 0,-0.765625 -0.109375,-1.96875 -0.65625,-3.109375 -0.59375,-1.21875 -1.453125,-1.875 -1.546875,-1.875 -0.0625,0 -0.109375,0.046875 -0.109375,0.109375 0,0.03125 0,0.046875 0.1875,0.234375 0.984375,0.984375 1.546875,2.5625 1.546875,4.640625 0,1.71875 -0.359375,3.46875 -1.59375,4.71875 C 0.5625,2.34375 0.5625,2.359375 0.5625,2.390625 0.5625,2.453125 0.609375,2.5 0.671875,2.5 0.765625,2.5 1.671875,1.8125 2.25,0.546875 2.765625,-0.546875 2.875,-1.65625 2.875,-2.5 Z m 0,0"
   id="path3462" />
      </symbol>
    </g>
  <g
   id="g529">
      <symbol
   overflow="visible"
   id="symbol4563">
        <path
   style="stroke:none"
   d=""
   id="path7649" />
      </symbol>
      <symbol
   overflow="visible"
   id="symbol9244">
        <path
   style="stroke:none"
   d="m 0.875,-0.59375 c -0.03125,0.15625 -0.09375,0.390625 -0.09375,0.4375 0,0.171875 0.140625,0.265625 0.296875,0.265625 0.125,0 0.296875,-0.078125 0.375,-0.28125 0,-0.015625 0.125,-0.484375 0.1875,-0.734375 l 0.21875,-0.890625 C 1.90625,-2.03125 1.96875,-2.25 2.03125,-2.46875 c 0.03125,-0.171875 0.109375,-0.46875 0.125,-0.5 0.140625,-0.3125 0.671875,-1.21875 1.625,-1.21875 0.453125,0 0.53125,0.375 0.53125,0.703125 0,0.25 -0.0625,0.53125 -0.140625,0.828125 L 3.890625,-1.5 3.6875,-0.75 c -0.03125,0.203125 -0.125,0.546875 -0.125,0.59375 0,0.171875 0.140625,0.265625 0.28125,0.265625 0.3125,0 0.375,-0.25 0.453125,-0.5625 0.140625,-0.5625 0.515625,-2.015625 0.59375,-2.40625 0.03125,-0.125 0.5625,-1.328125 1.65625,-1.328125 0.421875,0 0.53125,0.34375 0.53125,0.703125 0,0.5625 -0.421875,1.703125 -0.625,2.234375 -0.078125,0.234375 -0.125,0.34375 -0.125,0.546875 0,0.46875 0.34375,0.8125 0.8125,0.8125 0.9375,0 1.3125,-1.453125 1.3125,-1.53125 0,-0.109375 -0.09375,-0.109375 -0.125,-0.109375 -0.09375,0 -0.09375,0.03125 -0.140625,0.1875 -0.15625,0.53125 -0.46875,1.234375 -1.015625,1.234375 -0.171875,0 -0.25,-0.09375 -0.25,-0.328125 0,-0.25 0.09375,-0.484375 0.1875,-0.703125 0.1875,-0.53125 0.609375,-1.625 0.609375,-2.203125 0,-0.640625 -0.40625,-1.0625 -1.15625,-1.0625 -0.734375,0 -1.25,0.4375 -1.625,0.96875 0,-0.125 -0.03125,-0.46875 -0.3125,-0.703125 -0.25,-0.21875 -0.5625,-0.265625 -0.8125,-0.265625 -0.90625,0 -1.390625,0.640625 -1.5625,0.875 -0.046875,-0.578125 -0.46875,-0.875 -0.921875,-0.875 -0.453125,0 -0.640625,0.390625 -0.734375,0.5625 -0.171875,0.359375 -0.296875,0.9375 -0.296875,0.96875 0,0.109375 0.09375,0.109375 0.109375,0.109375 0.109375,0 0.109375,-0.015625 0.171875,-0.234375 0.171875,-0.703125 0.375,-1.1875 0.734375,-1.1875 0.15625,0 0.296875,0.078125 0.296875,0.453125 0,0.21875 -0.03125,0.328125 -0.15625,0.84375 z m 0,0"
   id="path7069" />
      </symbol>
    </g>
  <g
   id="g9041">
      <symbol
   overflow="visible"
   id="symbol1052">
        <path
   style="stroke:none"
   d=""
   id="path1263" />
      </symbol>
      <symbol
   overflow="visible"
   id="symbol4603">
        <path
   style="stroke:none"
   d="m 2.859375,-6.8125 c 0,0 0,-0.109375 -0.125,-0.109375 -0.234375,0 -0.953125,0.078125 -1.21875,0.109375 -0.078125,0 -0.1875,0.015625 -0.1875,0.1875 0,0.125 0.09375,0.125 0.234375,0.125 0.484375,0 0.5,0.0625 0.5,0.171875 L 2.03125,-6.125 0.59375,-0.390625 c -0.046875,0.140625 -0.046875,0.15625 -0.046875,0.21875 0,0.234375 0.203125,0.28125 0.296875,0.28125 0.125,0 0.265625,-0.09375 0.328125,-0.203125 0.046875,-0.09375 0.5,-1.9375 0.5625,-2.1875 0.34375,0.03125 1.15625,0.1875 1.15625,0.84375 0,0.078125 0,0.109375 -0.03125,0.21875 -0.015625,0.109375 -0.03125,0.234375 -0.03125,0.34375 0,0.578125 0.390625,0.984375 0.90625,0.984375 0.296875,0 0.578125,-0.15625 0.796875,-0.53125 0.25,-0.4375 0.359375,-0.984375 0.359375,-1 0,-0.109375 -0.09375,-0.109375 -0.125,-0.109375 -0.09375,0 -0.109375,0.046875 -0.140625,0.1875 -0.203125,0.71875 -0.421875,1.234375 -0.859375,1.234375 -0.203125,0 -0.328125,-0.109375 -0.328125,-0.46875 0,-0.171875 0.046875,-0.40625 0.078125,-0.5625 C 3.5625,-1.3125 3.5625,-1.34375 3.5625,-1.453125 3.5625,-2.09375 2.9375,-2.375 2.078125,-2.5 2.390625,-2.671875 2.71875,-2.984375 2.9375,-3.234375 3.421875,-3.765625 3.875,-4.1875 4.359375,-4.1875 c 0.0625,0 0.078125,0 0.09375,0.015625 0.125,0.015625 0.125,0.015625 0.21875,0.078125 0.015625,0 0.015625,0.015625 0.03125,0.03125 -0.46875,0.03125 -0.5625,0.421875 -0.5625,0.546875 0,0.15625 0.109375,0.34375 0.375,0.34375 0.265625,0 0.546875,-0.21875 0.546875,-0.609375 0,-0.296875 -0.234375,-0.625 -0.671875,-0.625 -0.28125,0 -0.734375,0.078125 -1.453125,0.875 -0.34375,0.375 -0.734375,0.78125 -1.109375,0.921875 z m 0,0"
   id="path9728" />
      </symbol>
    </g>
  <g
   id="g5063">
      <symbol
   overflow="visible"
   id="symbol2596">
        <path
   style="stroke:none"
   d=""
   id="path1912" />
      </symbol>
      <symbol
   overflow="visible"
   id="symbol4648">
        <path
   style="stroke:none"
   d="m 3.953125,-3.78125 c -0.171875,0 -0.296875,0 -0.4375,0.125 -0.171875,0.15625 -0.1875,0.328125 -0.1875,0.390625 0,0.25 0.1875,0.359375 0.375,0.359375 0.28125,0 0.546875,-0.25 0.546875,-0.640625 0,-0.484375 -0.46875,-0.859375 -1.171875,-0.859375 -1.34375,0 -2.671875,1.421875 -2.671875,2.828125 0,0.90625 0.578125,1.6875 1.625,1.6875 1.421875,0 2.25,-1.0625 2.25,-1.171875 0,-0.0625 -0.046875,-0.140625 -0.109375,-0.140625 -0.0625,0 -0.078125,0.03125 -0.140625,0.109375 -0.78125,0.984375 -1.875,0.984375 -1.984375,0.984375 -0.625,0 -0.90625,-0.484375 -0.90625,-1.09375 0,-0.40625 0.203125,-1.375 0.546875,-1.984375 0.3125,-0.578125 0.859375,-1 1.40625,-1 0.328125,0 0.71875,0.125 0.859375,0.40625 z m 0,0"
   id="path4342" />
      </symbol>
    </g>
  </defs><sodipodi:namedview
     id="namedview826"
     pagecolor="#505050"
     bordercolor="#eeeeee"
     borderopacity="1"
     inkscape:pageshadow="0"
     inkscape:pageopacity="0"
     inkscape:pagecheckerboard="0"
     showgrid="false"
     inkscape:snap-grids="true"
     inkscape:zoom="3.240234"
     inkscape:cx="47.990361"
     inkscape:cy="104.31345"
     inkscape:window-width="3840"
     inkscape:window-height="1566"
     inkscape:window-x="-11"
     inkscape:window-y="-11"
     inkscape:window-maximized="1"
     inkscape:current-layer="g830" /><g
     id="g830"
     inkscape:groupmode="layer"
     inkscape:label="15509435"
     transform="translate(-343.45266,-172.57467)"><g
       id="g868"
       transform="matrix(1.8126549,0,0,1.8141469,-279.37596,-140.50115)"
       style="stroke-width:0.551448"><g
         id="g870"
         clip-path="url(#clipPath874)"
         style="stroke-width:0.551448"><g
           id="g884"
           transform="translate(455.35999,209.92)"
           style="stroke-width:0.551448"><path
             d="M 0,0 V -19.040001 C 0,-19.200001 0.16,-19.52 0.48,-19.52 h 21.6 v 1.12 H 0.48 l 0.48,-0.640001 V 0 Z m 16.32,-22.719999 6.880001,3.679998 L 16.32,-15.2 c -0.16,0.16 -0.48,0 -0.64,-0.16 -0.16,-0.32 0,-0.64 0.16,-0.64 v 0 l 6.08,-3.360001 v 0.800002 L 15.84,-21.92 c -0.16,-0.16 -0.32,-0.32 -0.16,-0.639999 0.16,-0.16 0.48,-0.32 0.64,-0.16 z"
             style="fill:#ee6677;fill-opacity:1;fill-rule:nonzero;stroke:none;stroke-width:0.551448"
             id="path886" /></g></g></g><g
       id="g896"
       clip-path="url(#clipPath900)"
       transform="matrix(1.8126549,0,0,1.8141469,-279.37596,-140.50115)"
       style="stroke-width:0.551448"><g
         id="g902"
         style="stroke-width:0.551448"><path
           d="M 397.12,229.60001 H 375.51999 V 244 H 397.12"
           style="fill:none;fill-opacity:1;stroke:#000000;stroke-width:0.882322;stroke-linecap:butt;stroke-linejoin:round;stroke-miterlimit:10;stroke-dasharray:none;stroke-opacity:1"
           id="path904" /></g><g
         id="g906"
         style="stroke-width:0.551448"><path
           d="M 380.79999,242.08 V 231.2"
           style="fill:none;fill-opacity:1;stroke:#000000;stroke-width:0.882322;stroke-linecap:butt;stroke-linejoin:round;stroke-miterlimit:10;stroke-dasharray:none;stroke-opacity:1"
           id="path908" /></g><g
         id="g910"
         style="stroke-width:0.551448"><path
           d="M 375.51999,236.8 H 355.58766"
           style="fill:none;fill-opacity:1;stroke:#000000;stroke-width:0.882322;stroke-linecap:butt;stroke-linejoin:round;stroke-miterlimit:10;stroke-dasharray:none;stroke-opacity:1"
           id="path912"
           sodipodi:nodetypes="cc" /></g><g
         id="g914"
         style="stroke-width:0.551448"><path
           d="M 380.79999,236.8 H 412.16"
           style="fill:none;fill-opacity:1;stroke:#000000;stroke-width:0.882322;stroke-linecap:butt;stroke-linejoin:round;stroke-miterlimit:10;stroke-dasharray:none;stroke-opacity:1"
           id="path916" /></g><g
         id="g918"
         transform="translate(353.76001,214.72)"
         style="stroke-width:0.551448"><path
           d="M 1.8549301,0 H 8.64 L 13.12,-7.2 17.440001,7.2 21.76,-7.2 26.08,7.2 30.559999,-7.2 34.880001,7.2 39.200001,-7.2 43.68,7.2 48,0 h 8.639999"
           style="fill:none;stroke:#000000;stroke-width:0.882322;stroke-linecap:butt;stroke-linejoin:round;stroke-miterlimit:10;stroke-dasharray:none;stroke-opacity:1"
           id="path920"
           sodipodi:nodetypes="cccccccccccc" /></g></g><g
       id="g1006"
       transform="matrix(1.8126549,0,0,1.8141469,542.5543,267.31909)"
       style="fill:#0000ff;fill-opacity:1;stroke-width:0.551448"><g
         id="g1008"
         clip-path="url(#clipPath1012)"
         style="fill:#0000ff;fill-opacity:1;stroke-width:0.551448"><path
           d="M 0,0 H 24 V 2.72 H 0 Z M 22.559999,-5.28 36,1.28 22.559999,8 Z"
           style="fill:#4477aa;fill-opacity:1;fill-rule:nonzero;stroke:none;stroke-width:0.551448"
           id="path1014" /></g></g><g
       id="g1040"
       transform="matrix(1.8126549,0,0,1.8141469,-279.37596,-140.50115)"
       style="stroke-width:0.551448"><g
         id="g1042"
         clip-path="url(#clipPath1046)"
         style="stroke-width:0.551448"><g
           id="g1048"
           transform="translate(408,210.08)"
           style="stroke-width:0.551448"><path
             d="M 0,0 C 0,-4.32 3.52,-7.84 7.68,-7.84 H 40.32 C 44.48,-7.84 48,-4.32 48,0 v 31.200001 c 0,4.319999 -3.52,7.68 -7.68,7.68 H 7.68 C 3.52,38.880001 0,35.52 0,31.200001 Z"
             style="fill:#999999;fill-opacity:1;fill-rule:evenodd;stroke:none;stroke-width:0.551448"
             id="path1050" /></g><g
           id="g1052"
           transform="translate(408,210.08)"
           style="stroke-width:0.551448"><path
             d="M 0,0 C 0,-4.32 3.52,-7.84 7.68,-7.84 H 40.32 C 44.48,-7.84 48,-4.32 48,0 v 31.200001 c 0,4.319999 -3.52,7.68 -7.68,7.68 H 7.68 C 3.52,38.880001 0,35.52 0,31.200001 Z"
             style="fill:none;stroke:#000000;stroke-width:0.705858;stroke-linecap:butt;stroke-linejoin:round;stroke-miterlimit:10;stroke-dasharray:none;stroke-opacity:1"
             id="path1054" /></g></g></g><path
       style="fill:none;stroke:#000000;stroke-width:0.96;stroke-linecap:butt;stroke-linejoin:miter;stroke-miterlimit:4;stroke-dasharray:none;stroke-opacity:1"
       d="m 365.92921,219.71588 c -7.38241,6.95344 -14.7649,13.90695 -22.14744,20.86051"
       id="path2327"
       inkscape:tile-cx="5.890885"
       inkscape:tile-cy="17.6009"
       inkscape:tile-w="12.876159"
       inkscape:tile-h="12.197892"
       inkscape:tile-x0="-0.54719427"
       inkscape:tile-y0="11.501954"
       inkscape:original-d="m 365.92921,219.71588 c -7.38066,6.9553 -14.76314,13.90882 -22.14744,20.86051"
       inkscape:path-effect="#path-effect2329" /><use
       x="0"
       y="0"
       inkscape:tiled-clone-of="#path2327"
       xlink:href="#path2327"
       id="use4507"
       width="100%"
       height="100%"
       inkscape:tile-cx="5.890885"
       inkscape:tile-cy="17.6009"
       inkscape:tile-w="12.876159"
       inkscape:tile-h="12.197892"
       inkscape:tile-x0="-0.54719437"
       inkscape:tile-y0="11.501954"
       style="stroke-width:0.551448" /><use
       x="0"
       y="0"
       inkscape:tiled-clone-of="#use4507"
       xlink:href="#use4507"
       id="use4655"
       width="100%"
       height="100%"
       style="stroke-width:0.551448" /><use
       x="0"
       y="0"
       inkscape:tiled-clone-of="#use4507"
       xlink:href="#use4507"
       transform="translate(0,13.941125)"
       id="use4657"
       width="100%"
       height="100%"
       style="stroke-width:0.551448" /><use
       x="0"
       y="0"
       inkscape:tiled-clone-of="#use4507"
       xlink:href="#use4507"
       transform="translate(0,27.882248)"
       id="use4659"
       width="100%"
       height="100%"
       style="stroke-width:0.551448" /><use
       x="0"
       y="0"
       inkscape:tiled-clone-of="#use4507"
       xlink:href="#use4507"
       transform="translate(0,41.823375)"
       id="use4661"
       width="100%"
       height="100%"
       style="stroke-width:0.551448" /><use
       x="0"
       y="0"
       inkscape:tiled-clone-of="#use4507"
       xlink:href="#use4507"
       transform="translate(0,55.764501)"
       id="use4663"
       width="100%"
       height="100%"
       style="stroke-width:0.551448" /><use
       x="0"
       y="0"
       inkscape:tiled-clone-of="#use4507"
       xlink:href="#use4507"
       transform="translate(0,69.705625)"
       id="use4665"
       width="100%"
       height="100%"
       style="stroke-width:0.551448" /><use
       x="0"
       y="0"
       inkscape:tiled-clone-of="#use4507"
       xlink:href="#use4507"
       transform="translate(0,83.646749)"
       id="use4667"
       width="100%"
       height="100%"
       style="stroke-width:0.551448" /><use
       x="0"
       y="0"
       inkscape:tiled-clone-of="#use4507"
       xlink:href="#use4507"
       transform="translate(0,97.587874)"
       id="use4669"
       width="100%"
       height="100%"
       style="stroke-width:0.551448" /><g
       inkscape:label=""
       transform="matrix(2.7446803,0,0,2.7469394,341.36445,27.964488)"
       id="g18804"
       style="fill:#4477aa;fill-opacity:1;stroke:#4477aa;stroke-width:0.364192;stroke-opacity:1"><g
   id="g8227"
   style="fill:#4477aa;fill-opacity:1;stroke:#4477aa;stroke-width:0.364192;stroke-opacity:1">
    <g
   style="fill:#4477aa;fill-opacity:1;stroke:#4477aa;stroke-width:0.364192;stroke-opacity:1"
   id="g3190">
      <use
   xlink:href="#symbol9159"
   x="91.925003"
   y="81.962997"
   id="use3886"
   width="100%"
   height="100%"
   style="fill:#4477aa;fill-opacity:1;stroke:#4477aa;stroke-width:0.364192;stroke-opacity:1" />
    </g>
    <g
   style="fill:#4477aa;fill-opacity:1;stroke:#4477aa;stroke-width:0.364192;stroke-opacity:1"
   id="g4572">
      <use
   xlink:href="#symbol9142"
   x="99.716003"
   y="81.962997"
   id="use8436"
   width="100%"
   height="100%"
   style="fill:#4477aa;fill-opacity:1;stroke:#4477aa;stroke-width:0.364192;stroke-opacity:1" />
    </g>
    <g
   style="fill:#4477aa;fill-opacity:1;stroke:#4477aa;stroke-width:0.364192;stroke-opacity:1"
   id="g5952">
      <use
   xlink:href="#symbol6340"
   x="103.59"
   y="81.962997"
   id="use1623"
   width="100%"
   height="100%"
   style="fill:#4477aa;fill-opacity:1;stroke:#4477aa;stroke-width:0.364192;stroke-opacity:1" />
    </g>
    <g
   style="fill:#4477aa;fill-opacity:1;stroke:#4477aa;stroke-width:0.364192;stroke-opacity:1"
   id="g4872">
      <use
   xlink:href="#symbol872"
   x="107.188"
   y="81.962997"
   id="use7248"
   width="100%"
   height="100%"
   style="fill:#4477aa;fill-opacity:1;stroke:#4477aa;stroke-width:0.364192;stroke-opacity:1" />
    </g>
  </g>
</g><g
       inkscape:label=""
       transform="matrix(2.7720202,0,0,2.774302,327.72751,-34.051517)"
       id="g20853"
       style="fill:#ee6677;fill-opacity:1;stroke:none;stroke-width:0.3606;stroke-opacity:1"><g
   id="g1643"
   style="fill:#ee6677;fill-opacity:1;stroke:none;stroke-width:0.3606;stroke-opacity:1">
    <g
   style="fill:#ee6677;fill-opacity:1;stroke:none;stroke-width:0.3606;stroke-opacity:1"
   id="g6593">
      <use
   xlink:href="#symbol6646"
   x="91.925003"
   y="81.962997"
   id="use9203"
   width="100%"
   height="100%"
   style="fill:#ee6677;fill-opacity:1;stroke:none;stroke-width:0.3606;stroke-opacity:1" />
    </g>
    <g
   style="fill:#ee6677;fill-opacity:1;stroke:none;stroke-width:0.3606;stroke-opacity:1"
   id="g4276">
      <use
   xlink:href="#symbol8597"
   x="97.619003"
   y="81.962997"
   id="use7260"
   width="100%"
   height="100%"
   style="fill:#ee6677;fill-opacity:1;stroke:none;stroke-width:0.3606;stroke-opacity:1" />
    </g>
    <g
   style="fill:#ee6677;fill-opacity:1;stroke:none;stroke-width:0.3606;stroke-opacity:1"
   id="g482">
      <use
   xlink:href="#symbol1802"
   x="101.494"
   y="81.962997"
   id="use2583"
   width="100%"
   height="100%"
   style="fill:#ee6677;fill-opacity:1;stroke:none;stroke-width:0.3606;stroke-opacity:1" />
    </g>
    <g
   style="fill:#ee6677;fill-opacity:1;stroke:none;stroke-width:0.3606;stroke-opacity:1"
   id="g3684">
      <use
   xlink:href="#symbol4532"
   x="105.091"
   y="81.962997"
   id="use7444"
   width="100%"
   height="100%"
   style="fill:#ee6677;fill-opacity:1;stroke:none;stroke-width:0.3606;stroke-opacity:1" />
    </g>
  </g>
</g><g
       id="g940"
       transform="matrix(1.8126549,0,0,1.8141469,-279.37596,-140.50115)"
       style="stroke-width:0.551448"><g
         id="g942"
         clip-path="url(#clipPath946)"
         style="stroke-width:0.551448"><path
           d="m 356,198.56 v 54.08"
           style="fill:none;stroke:#000000;stroke-width:0.529392;stroke-linecap:butt;stroke-linejoin:round;stroke-miterlimit:10;stroke-dasharray:none;stroke-opacity:1"
           id="path948" /></g></g><g
       inkscape:label=""
       transform="matrix(2.7417971,0,0,2.7440538,239.73753,51.183671)"
       id="g42345"
       style="stroke-width:0.364575"><g
   id="g9930"
   style="stroke-width:0.364575">
    <g
   style="fill:#000000;fill-opacity:1;stroke-width:0.364575"
   id="g5517">
      <use
   xlink:href="#symbol9244"
   x="91.925003"
   y="81.962997"
   id="use7865"
   width="100%"
   height="100%"
   style="stroke-width:0.364575" />
    </g>
  </g>
</g><g
       inkscape:label=""
       transform="matrix(2.4889327,0,0,2.4909814,180.37347,21.586466)"
       id="g42696"
       style="stroke-width:0.401614"><g
   id="g9142"
   style="stroke-width:0.401614">
    <g
   style="fill:#000000;fill-opacity:1;stroke-width:0.401614"
   id="g7864">
      <use
   xlink:href="#symbol4603"
   x="91.925003"
   y="81.962997"
   id="use4815"
   width="100%"
   height="100%"
   style="stroke-width:0.401614" />
    </g>
  </g>
</g><g
       inkscape:label=""
       transform="matrix(2.6798543,0,0,2.6820601,162.84054,103.57071)"
       id="g43069"
       style="stroke-width:0.373002"><g
   id="g5618"
   style="stroke-width:0.373002">
    <g
   style="fill:#000000;fill-opacity:1;stroke-width:0.373002"
   id="g9567">
      <use
   xlink:href="#symbol4648"
   x="91.925003"
   y="81.962997"
   id="use5221"
   width="100%"
   height="100%"
   style="stroke-width:0.373002" />
    </g>
  </g>
</g></g></svg>
