<?xml version="1.0" encoding="UTF-8" standalone="no"?>
<!-- Created with Inkscape (http://www.inkscape.org/) -->

<svg
   width="100mm"
   height="74.022133mm"
   viewBox="0 0 100 74.022132"
   version="1.1"
   id="svg5"
   sodipodi:docname="02_PolygonForces.svg"
   inkscape:version="1.1 (c68e22c387, 2021-05-23)"
   xmlns:inkscape="http://www.inkscape.org/namespaces/inkscape"
   xmlns:sodipodi="http://sodipodi.sourceforge.net/DTD/sodipodi-0.dtd"
   xmlns:xlink="http://www.w3.org/1999/xlink"
   xmlns="http://www.w3.org/2000/svg"
   xmlns:svg="http://www.w3.org/2000/svg">
  <sodipodi:namedview
     id="namedview7"
     pagecolor="#505050"
     bordercolor="#eeeeee"
     borderopacity="1"
     inkscape:pageshadow="0"
     inkscape:pageopacity="0"
     inkscape:pagecheckerboard="0"
     inkscape:document-units="mm"
     showgrid="false"
     inkscape:zoom="3.6203867"
     inkscape:cx="55.657038"
     inkscape:cy="155.23204"
     inkscape:window-width="3840"
     inkscape:window-height="1566"
     inkscape:window-x="-11"
     inkscape:window-y="-11"
     inkscape:window-maximized="1"
     inkscape:current-layer="layer1" />
  <defs
     id="defs2">
    <clipPath
       clipPathUnits="userSpaceOnUse"
       id="clipPath852">
      <path
         d="m 156.8,474.56 h 479.99999 v 32.95999 H 156.8 Z"
         clip-rule="evenodd"
         id="path850" />
    </clipPath>
    <clipPath
       clipPathUnits="userSpaceOnUse"
       id="clipPath880">
      <path
         d="M 156.8,147.52 V 507.51999 H 636.79999 V 147.52 Z"
         clip-rule="evenodd"
         id="path878" />
    </clipPath>
    <clipPath
       clipPathUnits="userSpaceOnUse"
       id="clipPath934">
      <path
         d="M 156.8,147.52 V 507.51999 H 636.79999 V 147.52 Z"
         clip-rule="evenodd"
         id="path932" />
    </clipPath>
    <clipPath
       clipPathUnits="userSpaceOnUse"
       id="clipPath962">
      <path
         d="m 263.51999,297.28 h 12.96002 v 13.6 h -12.96002 z"
         clip-rule="evenodd"
         id="path960" />
    </clipPath>
    <clipPath
       clipPathUnits="userSpaceOnUse"
       id="clipPath980">
      <path
         d="M 572.32001,205.92 H 589.44 v 9.28 h -17.11999 z"
         clip-rule="evenodd"
         id="path978" />
    </clipPath>
    <clipPath
       clipPathUnits="userSpaceOnUse"
       id="clipPath992">
      <path
         d="M 219.03999,196.8 H 624 v 16.64 H 219.03999 Z"
         clip-rule="evenodd"
         id="path990" />
    </clipPath>
    <clipPath
       clipPathUnits="userSpaceOnUse"
       id="clipPath1004">
      <path
         d="M 175.67999,196.8 H 624 v 16.64 H 175.67999 Z"
         clip-rule="evenodd"
         id="path1002" />
    </clipPath>
    <clipPath
       clipPathUnits="userSpaceOnUse"
       id="clipPath1016">
      <path
         d="m 188,195.2 h 436 v 17.91999 H 188 Z"
         clip-rule="evenodd"
         id="path1014" />
    </clipPath>
    <clipPath
       clipPathUnits="userSpaceOnUse"
       id="clipPath1028">
      <path
         d="M 156.8,147.52 V 507.51999 H 636.79999 V 147.52 Z"
         clip-rule="evenodd"
         id="path1026" />
    </clipPath>
    <clipPath
       clipPathUnits="userSpaceOnUse"
       id="clipPath1080">
      <path
         d="m 440,391.20001 h 32.79999 v 17.12 H 440 Z"
         clip-rule="evenodd"
         id="path1078" />
    </clipPath>
    <clipPath
       clipPathUnits="userSpaceOnUse"
       id="clipPath1092">
      <path
         d="m 427.84,391.20001 h 44.95999 V 407.84 H 427.84 Z"
         clip-rule="evenodd"
         id="path1090" />
    </clipPath>
    <clipPath
       clipPathUnits="userSpaceOnUse"
       id="clipPath1104">
      <path
         d="m 388.16,366.39999 h 7.51999 v 15.20002 H 388.16 Z"
         clip-rule="evenodd"
         id="path1102" />
    </clipPath>
    <clipPath
       clipPathUnits="userSpaceOnUse"
       id="clipPath1116">
      <path
         d="m 375.84,366.39999 h 19.83999 v 15.20002 H 375.84 Z"
         clip-rule="evenodd"
         id="path1114" />
    </clipPath>
    <clipPath
       clipPathUnits="userSpaceOnUse"
       id="clipPath1128">
      <path
         d="m 475.51999,375.51999 h 26.40002 v 19.68002 h -26.40002 z"
         clip-rule="evenodd"
         id="path1126" />
    </clipPath>
    <clipPath
       clipPathUnits="userSpaceOnUse"
       id="clipPath1140">
      <path
         d="m 492.16,316.48001 h 36.48001 v 18.72 H 492.16 Z"
         clip-rule="evenodd"
         id="path1138" />
    </clipPath>
    <clipPath
       clipPathUnits="userSpaceOnUse"
       id="clipPath1152">
      <path
         d="m 500.32001,316.48001 h 28.32 V 334.72 h -28.32 z"
         clip-rule="evenodd"
         id="path1150" />
    </clipPath>
    <clipPath
       clipPathUnits="userSpaceOnUse"
       id="clipPath1170">
      <path
         d="m 396.95999,273.28 h 49.12 v 20.95999 h -49.12 z"
         clip-rule="evenodd"
         id="path1168" />
    </clipPath>
    <clipPath
       clipPathUnits="userSpaceOnUse"
       id="clipPath1182">
      <path
         d="m 410.23999,271.35999 h 35.84 v 22.40002 h -35.84 z"
         clip-rule="evenodd"
         id="path1180" />
    </clipPath>
    <clipPath
       clipPathUnits="userSpaceOnUse"
       id="clipPath1194">
      <path
         d="M 156.8,147.52 V 507.51999 H 636.79999 V 147.52 Z"
         clip-rule="evenodd"
         id="path1192" />
    </clipPath>
    <clipPath
       clipPathUnits="userSpaceOnUse"
       id="clipPath1210">
      <path
         d="M 404.95999,341.44 H 417.12 v 14.23999 h -12.16001 z"
         clip-rule="evenodd"
         id="path1208" />
    </clipPath>
    <clipPath
       clipPathUnits="userSpaceOnUse"
       id="clipPath1222">
      <path
         d="m 357.60001,340.64001 h 6.72 V 352.16 h -6.72 z"
         clip-rule="evenodd"
         id="path1220" />
    </clipPath>
    <clipPath
       clipPathUnits="userSpaceOnUse"
       id="clipPath1234">
      <path
         d="m 347.35999,329.44 h 16.96002 v 20.48001 h -16.96002 z"
         clip-rule="evenodd"
         id="path1232" />
    </clipPath>
    <clipPath
       clipPathUnits="userSpaceOnUse"
       id="clipPath1258">
      <path
         d="m 605.28003,476 h 22.87994 v 22.88 h -22.87994 z"
         clip-rule="evenodd"
         id="path1256" />
    </clipPath>
    <clipPath
       clipPathUnits="userSpaceOnUse"
       id="clipPath1278">
      <path
         d="M 156.8,941.91998 H 636.79999 V 974.88 H 156.8 Z"
         clip-rule="evenodd"
         id="path1276" />
    </clipPath>
    <clipPath
       clipPathUnits="userSpaceOnUse"
       id="clipPath1336">
      <path
         d="m 156.8,614.88 v 360 h 479.99999 v -360 z"
         clip-rule="evenodd"
         id="path1334" />
    </clipPath>
    <clipPath
       clipPathUnits="userSpaceOnUse"
       id="clipPath1388">
      <path
         d="m 292.95999,794.56 h 24.64002 v 15.52002 h -24.64002 z"
         clip-rule="evenodd"
         id="path1386" />
    </clipPath>
    <clipPath
       clipPathUnits="userSpaceOnUse"
       id="clipPath1400">
      <path
         d="m 283.20001,794.56 h 34.4 v 15.20001 h -34.4 z"
         clip-rule="evenodd"
         id="path1398" />
    </clipPath>
    <clipPath
       clipPathUnits="userSpaceOnUse"
       id="clipPath1412">
      <path
         d="m 246.88,772.15997 h 5.92 v 12 h -5.92 z"
         clip-rule="evenodd"
         id="path1410" />
    </clipPath>
    <clipPath
       clipPathUnits="userSpaceOnUse"
       id="clipPath1424">
      <path
         d="M 237.11999,772.15997 H 252.8 v 12 h -15.68001 z"
         clip-rule="evenodd"
         id="path1422" />
    </clipPath>
    <clipPath
       clipPathUnits="userSpaceOnUse"
       id="clipPath1436">
      <path
         d="M 320.32001,783.20001 H 341.44 v 15.51996 h -21.11999 z"
         clip-rule="evenodd"
         id="path1434" />
    </clipPath>
    <clipPath
       clipPathUnits="userSpaceOnUse"
       id="clipPath1448">
      <path
         d="m 327.84,736.32001 h 29.11999 v 14.88 H 327.84 Z"
         clip-rule="evenodd"
         id="path1446" />
    </clipPath>
    <clipPath
       clipPathUnits="userSpaceOnUse"
       id="clipPath1460">
      <path
         d="m 334.39999,736.32001 h 22.56 V 750.88 h -22.56 z"
         clip-rule="evenodd"
         id="path1458" />
    </clipPath>
    <clipPath
       clipPathUnits="userSpaceOnUse"
       id="clipPath1472">
      <path
         d="m 156.8,614.88 v 360 h 479.99999 v -360 z"
         clip-rule="evenodd"
         id="path1470" />
    </clipPath>
    <clipPath
       clipPathUnits="userSpaceOnUse"
       id="clipPath1488">
      <path
         d="m 264.64001,756.15997 h 12 v 14.24005 h -12 z"
         clip-rule="evenodd"
         id="path1486" />
    </clipPath>
    <clipPath
       clipPathUnits="userSpaceOnUse"
       id="clipPath1500">
      <path
         d="m 156.8,614.88 v 360 h 479.99999 v -360 z"
         clip-rule="evenodd"
         id="path1498" />
    </clipPath>
    <clipPath
       clipPathUnits="userSpaceOnUse"
       id="clipPath1510">
      <path
         d="m 408.32001,757.44 h 180.64001 v 10.71997 H 408.32001 Z"
         clip-rule="evenodd"
         id="path1508" />
    </clipPath>
    <clipPath
       clipPathUnits="userSpaceOnUse"
       id="clipPath1522">
      <path
         d="m 404.79999,768.79999 h 18.56 v 10.40002 h -18.56 z"
         clip-rule="evenodd"
         id="path1520" />
    </clipPath>
    <clipPath
       clipPathUnits="userSpaceOnUse"
       id="clipPath1534">
      <path
         d="m 431.04001,758.71997 h 157.92001 v 18.24005 H 431.04001 Z"
         clip-rule="evenodd"
         id="path1532" />
    </clipPath>
    <clipPath
       clipPathUnits="userSpaceOnUse"
       id="clipPath1546">
      <path
         d="m 396.32001,758.71997 h 192.64001 v 18.24005 H 396.32001 Z"
         clip-rule="evenodd"
         id="path1544" />
    </clipPath>
    <clipPath
       clipPathUnits="userSpaceOnUse"
       id="clipPath1564">
      <path
         d="m 395.67999,698.56 v 41.91998 H 497.12 V 698.56 Z"
         clip-rule="evenodd"
         id="path1562" />
    </clipPath>
    <clipPath
       clipPathUnits="userSpaceOnUse"
       id="clipPath1574">
      <path
         d="M 488.64001,719.20001 H 497.12 v 10.71997 h -8.47999 z"
         clip-rule="evenodd"
         id="path1572" />
    </clipPath>
    <clipPath
       clipPathUnits="userSpaceOnUse"
       id="clipPath1592">
      <path
         d="m 460.48001,698.56 h 32.16 v 17.76001 h -32.16 z"
         clip-rule="evenodd"
         id="path1590" />
    </clipPath>
    <clipPath
       clipPathUnits="userSpaceOnUse"
       id="clipPath1604">
      <path
         d="m 445.44,720.47998 h 51.68 v 18.23999 h -51.68 z"
         clip-rule="evenodd"
         id="path1602" />
    </clipPath>
    <clipPath
       clipPathUnits="userSpaceOnUse"
       id="clipPath1616">
      <path
         d="M 469.60001,698.56 H 497.12 V 716 h -27.51999 z"
         clip-rule="evenodd"
         id="path1614" />
    </clipPath>
    <clipPath
       clipPathUnits="userSpaceOnUse"
       id="clipPath1634">
      <path
         d="M 455.67999,718.88 H 497.12 v 19.52002 h -41.44001 z"
         clip-rule="evenodd"
         id="path1632" />
    </clipPath>
    <clipPath
       clipPathUnits="userSpaceOnUse"
       id="clipPath1646">
      <path
         d="m 395.84,785.59998 v 25.92004 h 178.72 v -25.92004 z"
         clip-rule="evenodd"
         id="path1644" />
    </clipPath>
    <clipPath
       clipPathUnits="userSpaceOnUse"
       id="clipPath1674">
      <path
         d="m 502.72,789.28003 h 71.84 V 800 h -71.84 z"
         clip-rule="evenodd"
         id="path1672" />
    </clipPath>
    <clipPath
       clipPathUnits="userSpaceOnUse"
       id="clipPath1692">
      <path
         d="m 453.28,790.40002 h 121.28 v 18.23999 H 453.28 Z"
         clip-rule="evenodd"
         id="path1690" />
    </clipPath>
    <clipPath
       clipPathUnits="userSpaceOnUse"
       id="clipPath1704">
      <path
         d="m 397.28,790.40002 h 177.28 v 18.23999 H 397.28 Z"
         clip-rule="evenodd"
         id="path1702" />
    </clipPath>
    <clipPath
       clipPathUnits="userSpaceOnUse"
       id="clipPath1716">
      <path
         d="m 416,788.79999 h 158.56 v 19.52002 H 416 Z"
         clip-rule="evenodd"
         id="path1714" />
    </clipPath>
    <clipPath
       clipPathUnits="userSpaceOnUse"
       id="clipPath1734">
      <path
         d="m 252.32001,706.56 h 39.03998 v 16.64001 h -39.03998 z"
         clip-rule="evenodd"
         id="path1732" />
    </clipPath>
    <clipPath
       clipPathUnits="userSpaceOnUse"
       id="clipPath1746">
      <path
         d="m 262.88,704.96002 h 28.47999 V 722.88 H 262.88 Z"
         clip-rule="evenodd"
         id="path1744" />
    </clipPath>
    <clipPath
       clipPathUnits="userSpaceOnUse"
       id="clipPath1758">
      <path
         d="M 225.11999,759.20001 H 230.56 v 9.27997 h -5.44001 z"
         clip-rule="evenodd"
         id="path1756" />
    </clipPath>
    <clipPath
       clipPathUnits="userSpaceOnUse"
       id="clipPath1770">
      <path
         d="m 217.28,750.40002 h 13.28 v 16.31995 h -13.28 z"
         clip-rule="evenodd"
         id="path1768" />
    </clipPath>
    <clipPath
       clipPathUnits="userSpaceOnUse"
       id="clipPath1794">
      <path
         d="M -108.16,-284.32001 V 75.68 h 480 v -360.00001 z"
         clip-rule="evenodd"
         id="path1792" />
    </clipPath>
    <clipPath
       clipPathUnits="userSpaceOnUse"
       id="clipPath1804">
      <path
         d="m 244,915.03998 h 18.72 V 925.44 H 244 Z"
         clip-rule="evenodd"
         id="path1802" />
    </clipPath>
    <clipPath
       clipPathUnits="userSpaceOnUse"
       id="clipPath1816">
      <path
         d="m 251.52,905.44 h 49.27999 v 17.91998 H 251.52 Z"
         clip-rule="evenodd"
         id="path1814" />
    </clipPath>
    <clipPath
       clipPathUnits="userSpaceOnUse"
       id="clipPath1828">
      <path
         d="m 235.36,905.44 h 65.43999 v 17.91998 H 235.36 Z"
         clip-rule="evenodd"
         id="path1826" />
    </clipPath>
    <clipPath
       clipPathUnits="userSpaceOnUse"
       id="clipPath1840">
      <path
         d="m 277.92001,905.44 h 22.87998 v 17.59998 h -22.87998 z"
         clip-rule="evenodd"
         id="path1838" />
    </clipPath>
    <clipPath
       clipPathUnits="userSpaceOnUse"
       id="clipPath1852">
      <path
         d="M -322.56,-284.64001 V 75.360001 h 480 V -284.64001 Z"
         clip-rule="evenodd"
         id="path1850" />
    </clipPath>
    <clipPath
       clipPathUnits="userSpaceOnUse"
       id="clipPath1866">
      <path
         d="M 502.23999,913.12 H 574.88 v 16.64001 h -72.64001 z"
         clip-rule="evenodd"
         id="path1864" />
    </clipPath>
    <clipPath
       clipPathUnits="userSpaceOnUse"
       id="clipPath1878">
      <path
         d="m 487.51999,913.12 h 83.83999 v 16.64001 h -83.83999 z"
         clip-rule="evenodd"
         id="path1876" />
    </clipPath>
    <clipPath
       clipPathUnits="userSpaceOnUse"
       id="clipPath1890">
      <path
         d="M 528.64001,913.12 H 574.88 v 16.32 h -46.23999 z"
         clip-rule="evenodd"
         id="path1888" />
    </clipPath>
    <clipPath
       clipPathUnits="userSpaceOnUse"
       id="clipPath1902">
      <path
         d="m 156.8,614.88 v 360 h 479.99999 v -360 z m 166.55999,249.91999 -0.96,0.16003 -0.95999,0.32001 -0.32,0.15997 -0.47999,0.15998 -0.32,0.16003 -0.16001,0.15997 -0.32,0.16004 -0.16001,0.15997 -0.32,0.16003 -0.31998,0.31995 -0.32001,0.16003 -0.64001,0.64002 -0.15998,0.32001 -0.32,0.31994 -0.16001,0.32001 -0.16,0.16003 -0.16,0.32001 -0.16001,0.15998 -0.31998,0.64001 -0.16,0.47998 -0.16,0.32001 L 316.16,871.20001 316,872 v 57.59998 h 0.16 v 0.80004 h 0.16001 V 930.88 h 0.16 v 0.47998 h 0.16 v 0.32001 h 0.15998 V 932 h 0.16 v 0.32001 H 317.12 v 0.32 h 0.16 l 0.16,0.15998 V 933.12 h 0.16001 l 0.16,0.16003 v 0.31995 h 0.16 l 1.12,1.11999 0.31998,0.16003 0.32,0.32001 0.64002,0.32001 0.16,0.15997 0.47998,0.16004 L 321.28,936 l 0.95999,0.32001 0.64001,0.15997 147.68,0.16003 v -0.16003 l 0.64001,-0.15997 L 472.16,936 l 0.96,-0.47998 0.16,-0.16004 0.32001,-0.15997 0.16,-0.16003 0.31998,-0.15998 0.48001,-0.47998 0.32,-0.16003 0.16001,-0.32001 0.63998,-0.63995 0.16001,-0.32001 0.16,-0.16003 0.64001,-1.27997 0.31998,-0.96002 0.16001,-0.64002 0.16,-1.27997 0.16,-55.84002 h -0.16 v -1.27997 h -0.16 V 870.88 h -0.16001 v -0.47998 h -0.16 v -0.32 h -0.15998 v -0.48004 h -0.16 v -0.31995 h -0.16 v -0.32001 L 476.16,868.79999 H 476 v -0.32001 l -0.32001,-0.32001 h -0.16 v -0.31994 l -1.28,-1.28003 -0.31998,-0.15998 -0.16,-0.16003 -0.32001,-0.15997 -0.16,-0.16004 -0.95999,-0.47998 -0.48001,-0.15997 -0.32001,-0.16003 -0.63999,-0.15998 -0.80001,-0.16003 z"
         clip-rule="evenodd"
         id="path1900" />
    </clipPath>
    <clipPath
       clipPathUnits="userSpaceOnUse"
       id="clipPath1918">
      <path
         d="m 156.8,614.88 v 360 h 479.99999 v -360 z"
         clip-rule="evenodd"
         id="path1916" />
    </clipPath>
    <clipPath
       clipPathUnits="userSpaceOnUse"
       id="clipPath1940">
      <path
         d="m 350.39999,901.44 v 35.20001 h 85.28 V 901.44 Z"
         clip-rule="evenodd"
         id="path1938" />
    </clipPath>
    <clipPath
       clipPathUnits="userSpaceOnUse"
       id="clipPath1950">
      <path
         d="m 428.32001,918.88 h 7.35998 v 8.79999 h -7.35998 z"
         clip-rule="evenodd"
         id="path1948" />
    </clipPath>
    <clipPath
       clipPathUnits="userSpaceOnUse"
       id="clipPath1968">
      <path
         d="m 404.79999,901.44 h 26.72 v 14.71997 h -26.72 z"
         clip-rule="evenodd"
         id="path1966" />
    </clipPath>
    <clipPath
       clipPathUnits="userSpaceOnUse"
       id="clipPath1980">
      <path
         d="m 392.16,919.84003 h 43.51999 V 934.88 H 392.16 Z"
         clip-rule="evenodd"
         id="path1978" />
    </clipPath>
    <clipPath
       clipPathUnits="userSpaceOnUse"
       id="clipPath1992">
      <path
         d="m 412.48001,901.44 h 23.19998 v 14.40003 h -23.19998 z"
         clip-rule="evenodd"
         id="path1990" />
    </clipPath>
    <clipPath
       clipPathUnits="userSpaceOnUse"
       id="clipPath2010">
      <path
         d="m 400.79999,918.40002 h 34.88 V 934.56 h -34.88 z"
         clip-rule="evenodd"
         id="path2008" />
    </clipPath>
    <clipPath
       clipPathUnits="userSpaceOnUse"
       id="clipPath2028">
      <path
         d="m 317.92001,865.28003 v 39.35998 h 154.56 v -39.35998 z"
         clip-rule="evenodd"
         id="path2026" />
    </clipPath>
    <clipPath
       clipPathUnits="userSpaceOnUse"
       id="clipPath2060">
      <path
         d="m 467.51999,881.76001 h 4.96002 V 890.56 h -4.96002 z"
         clip-rule="evenodd"
         id="path2058" />
    </clipPath>
    <clipPath
       clipPathUnits="userSpaceOnUse"
       id="clipPath2078">
      <path
         d="m 397.76001,865.28003 h 26.72 V 880 h -26.72 z"
         clip-rule="evenodd"
         id="path2076" />
    </clipPath>
    <clipPath
       clipPathUnits="userSpaceOnUse"
       id="clipPath2090">
      <path
         d="m 353.92001,886.56 h 118.56 v 15.03998 h -118.56 z"
         clip-rule="evenodd"
         id="path2088" />
    </clipPath>
    <clipPath
       clipPathUnits="userSpaceOnUse"
       id="clipPath2102">
      <path
         d="m 319.20001,873.44 h 153.28 v 15.03998 h -153.28 z"
         clip-rule="evenodd"
         id="path2100" />
    </clipPath>
    <clipPath
       clipPathUnits="userSpaceOnUse"
       id="clipPath2132">
      <path
         d="m 156.8,614.88 v 360 h 479.99999 v -360 z"
         clip-rule="evenodd"
         id="path2130" />
    </clipPath>
    <clipPath
       clipPathUnits="userSpaceOnUse"
       id="clipPath2148">
      <path
         d="m 605.28003,943.35998 h 22.87994 v 22.88001 h -22.87994 z"
         clip-rule="evenodd"
         id="path2146" />
    </clipPath>
    <g
       id="g5668">
      <symbol
         overflow="visible"
         id="symbol313">
        <path
           style="stroke:none"
           d=""
           id="path6388" />
      </symbol>
      <symbol
         overflow="visible"
         id="symbol8988">
        <path
           style="stroke:none"
           d="m 3.015625,-3.234375 h 0.96875 c 0.75,0 0.828125,0.15625 0.828125,0.4375 0,0.078125 0,0.1875 -0.0625,0.5 C 4.71875,-2.25 4.71875,-2.21875 4.71875,-2.1875 c 0,0.078125 0.0625,0.109375 0.109375,0.109375 0.109375,0 0.109375,-0.03125 0.15625,-0.203125 L 5.53125,-4.453125 C 5.5625,-4.5625 5.5625,-4.578125 5.5625,-4.609375 5.5625,-4.625 5.546875,-4.71875 5.4375,-4.71875 5.34375,-4.71875 5.328125,-4.671875 5.296875,-4.5 5.078125,-3.734375 4.859375,-3.546875 4,-3.546875 H 3.09375 l 0.640625,-2.53125 C 3.828125,-6.4375 3.84375,-6.46875 4.28125,-6.46875 h 1.3125 c 1.21875,0 1.453125,0.328125 1.453125,1.09375 0,0.234375 0,0.265625 -0.03125,0.546875 C 7,-4.703125 7,-4.6875 7,-4.65625 c 0,0.046875 0.03125,0.125 0.125,0.125 0.109375,0 0.109375,-0.0625 0.125,-0.25 L 7.453125,-6.515625 C 7.484375,-6.78125 7.4375,-6.78125 7.1875,-6.78125 H 2.296875 c -0.1875,0 -0.296875,0 -0.296875,0.203125 0,0.109375 0.09375,0.109375 0.28125,0.109375 0.375,0 0.65625,0 0.65625,0.171875 0,0.046875 0,0.0625 -0.0625,0.25 L 1.5625,-0.78125 c -0.09375,0.390625 -0.109375,0.46875 -0.90625,0.46875 -0.171875,0 -0.28125,0 -0.28125,0.1875 C 0.375,0 0.5,0 0.53125,0 0.8125,0 1.5625,-0.03125 1.84375,-0.03125 2.171875,-0.03125 3,0 3.328125,0 3.421875,0 3.53125,0 3.53125,-0.1875 3.53125,-0.265625 3.484375,-0.296875 3.484375,-0.296875 3.453125,-0.3125 3.421875,-0.3125 3.203125,-0.3125 c -0.21875,0 -0.265625,0 -0.515625,-0.015625 -0.296875,-0.03125 -0.328125,-0.078125 -0.328125,-0.203125 0,-0.015625 0,-0.078125 0.046875,-0.21875 z m 0,0"
           id="path8327" />
      </symbol>
      <symbol
         overflow="visible"
         id="symbol1517">
        <path
           style="stroke:none"
           d=""
           id="path4782" />
      </symbol>
      <symbol
         overflow="visible"
         id="symbol3087">
        <path
           style="stroke:none"
           d="M 3.59375,-2.21875 C 3.59375,-2.984375 3.5,-3.546875 3.1875,-4.03125 2.96875,-4.34375 2.53125,-4.625 1.984375,-4.625 c -1.625,0 -1.625,1.90625 -1.625,2.40625 0,0.5 0,2.359375 1.625,2.359375 1.609375,0 1.609375,-1.859375 1.609375,-2.359375 z M 1.984375,-0.0625 c -0.328125,0 -0.75,-0.1875 -0.890625,-0.75 C 1,-1.21875 1,-1.796875 1,-2.3125 1,-2.828125 1,-3.359375 1.09375,-3.734375 1.25,-4.28125 1.6875,-4.4375 1.984375,-4.4375 c 0.375,0 0.734375,0.234375 0.859375,0.640625 0.109375,0.375 0.125,0.875 0.125,1.484375 0,0.515625 0,1.03125 -0.09375,1.46875 -0.140625,0.640625 -0.609375,0.78125 -0.890625,0.78125 z m 0,0"
           id="path2634" />
      </symbol>
    </g>
    <g
       id="g5262">
      <symbol
         overflow="visible"
         id="symbol668">
        <path
           style="stroke:none"
           d=""
           id="path7874" />
      </symbol>
      <symbol
         overflow="visible"
         id="symbol8378">
        <path
           style="stroke:none"
           d="m 6.03125,-3.703125 c 0,-0.453125 -0.171875,-0.703125 -0.40625,-0.703125 -0.25,0 -0.515625,0.234375 -0.515625,0.46875 0,0.09375 0.046875,0.203125 0.140625,0.296875 0.171875,0.15625 0.359375,0.421875 0.359375,0.84375 0,0.390625 -0.203125,0.96875 -0.5,1.421875 C 4.8125,-0.953125 4.4375,-0.609375 3.96875,-0.609375 3.40625,-0.609375 3.09375,-0.96875 3,-1.5 c 0.109375,-0.265625 0.34375,-0.90625 0.34375,-1.1875 0,-0.109375 -0.046875,-0.21875 -0.1875,-0.21875 -0.078125,0 -0.1875,0.03125 -0.265625,0.171875 C 2.78125,-2.53125 2.65625,-1.890625 2.65625,-1.53125 2.328125,-1.0625 1.9375,-0.609375 1.3125,-0.609375 c -0.671875,0 -0.875,-0.59375 -0.875,-1.140625 0,-1.25 1.015625,-2.296875 1.015625,-2.421875 0,-0.109375 -0.078125,-0.1875 -0.1875,-0.1875 -0.125,0 -0.203125,0.125 -0.265625,0.21875 -0.5,0.734375 -0.875,1.921875 -0.875,2.828125 0,0.6875 0.21875,1.421875 1.046875,1.421875 0.703125,0 1.171875,-0.5 1.53125,-1.046875 0.09375,0.578125 0.484375,1.046875 1.09375,1.046875 0.78125,0 1.25,-0.609375 1.609375,-1.359375 0.25,-0.484375 0.625,-1.84375 0.625,-2.453125 z m 0,0"
           id="path7071" />
      </symbol>
      <symbol
         overflow="visible"
         id="symbol7543">
        <path
           style="stroke:none"
           d="m 2.046875,-3.984375 h 0.9375 c 0.203125,0 0.3125,0 0.3125,-0.203125 0,-0.109375 -0.109375,-0.109375 -0.28125,-0.109375 h -0.875 C 2.5,-5.71875 2.546875,-5.90625 2.546875,-5.96875 c 0,-0.171875 -0.125,-0.265625 -0.296875,-0.265625 -0.03125,0 -0.3125,0 -0.390625,0.359375 L 1.46875,-4.296875 h -0.9375 c -0.203125,0 -0.296875,0 -0.296875,0.1875 0,0.125 0.078125,0.125 0.28125,0.125 h 0.875 C 0.671875,-1.15625 0.625,-0.984375 0.625,-0.8125 0.625,-0.265625 1,0.109375 1.546875,0.109375 2.5625,0.109375 3.125,-1.34375 3.125,-1.421875 3.125,-1.53125 3.046875,-1.53125 3.015625,-1.53125 2.921875,-1.53125 2.90625,-1.5 2.859375,-1.390625 2.4375,-0.34375 1.90625,-0.109375 1.5625,-0.109375 c -0.203125,0 -0.3125,-0.125 -0.3125,-0.453125 0,-0.25 0.03125,-0.3125 0.0625,-0.484375 z m 0,0"
           id="path2000" />
      </symbol>
    </g>
    <g
       id="g1133">
      <symbol
         overflow="visible"
         id="symbol9274">
        <path
           style="stroke:none"
           d=""
           id="path9664" />
      </symbol>
      <symbol
         overflow="visible"
         id="symbol7022">
        <path
           style="stroke:none"
           d="m 6.03125,-3.703125 c 0,-0.453125 -0.171875,-0.703125 -0.40625,-0.703125 -0.25,0 -0.515625,0.234375 -0.515625,0.46875 0,0.09375 0.046875,0.203125 0.140625,0.296875 0.171875,0.15625 0.359375,0.421875 0.359375,0.84375 0,0.390625 -0.203125,0.96875 -0.5,1.421875 C 4.8125,-0.953125 4.4375,-0.609375 3.96875,-0.609375 3.40625,-0.609375 3.09375,-0.96875 3,-1.5 c 0.109375,-0.265625 0.34375,-0.90625 0.34375,-1.1875 0,-0.109375 -0.046875,-0.21875 -0.1875,-0.21875 -0.078125,0 -0.1875,0.03125 -0.265625,0.171875 C 2.78125,-2.53125 2.65625,-1.890625 2.65625,-1.53125 2.328125,-1.0625 1.9375,-0.609375 1.3125,-0.609375 c -0.671875,0 -0.875,-0.59375 -0.875,-1.140625 0,-1.25 1.015625,-2.296875 1.015625,-2.421875 0,-0.109375 -0.078125,-0.1875 -0.1875,-0.1875 -0.125,0 -0.203125,0.125 -0.265625,0.21875 -0.5,0.734375 -0.875,1.921875 -0.875,2.828125 0,0.6875 0.21875,1.421875 1.046875,1.421875 0.703125,0 1.171875,-0.5 1.53125,-1.046875 0.09375,0.578125 0.484375,1.046875 1.09375,1.046875 0.78125,0 1.25,-0.609375 1.609375,-1.359375 0.25,-0.484375 0.625,-1.84375 0.625,-2.453125 z m 0,0"
           id="path7630" />
      </symbol>
      <symbol
         overflow="visible"
         id="symbol1545">
        <path
           style="stroke:none"
           d="m 2.046875,-3.984375 h 0.9375 c 0.203125,0 0.3125,0 0.3125,-0.203125 0,-0.109375 -0.109375,-0.109375 -0.28125,-0.109375 h -0.875 C 2.5,-5.71875 2.546875,-5.90625 2.546875,-5.96875 c 0,-0.171875 -0.125,-0.265625 -0.296875,-0.265625 -0.03125,0 -0.3125,0 -0.390625,0.359375 L 1.46875,-4.296875 h -0.9375 c -0.203125,0 -0.296875,0 -0.296875,0.1875 0,0.125 0.078125,0.125 0.28125,0.125 h 0.875 C 0.671875,-1.15625 0.625,-0.984375 0.625,-0.8125 0.625,-0.265625 1,0.109375 1.546875,0.109375 2.5625,0.109375 3.125,-1.34375 3.125,-1.421875 3.125,-1.53125 3.046875,-1.53125 3.015625,-1.53125 2.921875,-1.53125 2.90625,-1.5 2.859375,-1.390625 2.4375,-0.34375 1.90625,-0.109375 1.5625,-0.109375 c -0.203125,0 -0.3125,-0.125 -0.3125,-0.453125 0,-0.25 0.03125,-0.3125 0.0625,-0.484375 z m 0,0"
           id="path7506" />
      </symbol>
      <symbol
         overflow="visible"
         id="symbol2022">
        <path
           style="stroke:none"
           d="m 4.359375,-6.671875 c 0,-0.03125 0.03125,-0.140625 0.03125,-0.140625 0,-0.015625 0,-0.109375 -0.125,-0.109375 -0.09375,0 -0.109375,0.03125 -0.15625,0.203125 L 3.53125,-4.421875 c -1.578125,0.0625 -3.046875,1.375 -3.046875,2.734375 0,0.953125 0.703125,1.734375 1.921875,1.8125 C 2.328125,0.421875 2.25,0.75 2.171875,1.0625 c -0.125,0.46875 -0.21875,0.84375 -0.21875,0.875 0,0.09375 0.078125,0.109375 0.125,0.109375 C 2.125,2.046875 2.140625,2.03125 2.171875,2 2.1875,1.984375 2.25,1.75 2.28125,1.609375 L 2.65625,0.125 c 1.609375,-0.0625 3.0625,-1.40625 3.0625,-2.734375 0,-0.796875 -0.53125,-1.703125 -1.921875,-1.8125 z m -1.90625,6.578125 c -0.59375,-0.03125 -1.3125,-0.390625 -1.3125,-1.375 0,-1.203125 0.859375,-2.59375 2.34375,-2.734375 z m 1.28125,-4.109375 c 0.765625,0.046875 1.328125,0.5 1.328125,1.375 0,1.1875 -0.859375,2.609375 -2.34375,2.734375 z m 0,0"
           id="path5573" />
      </symbol>
      <symbol
         overflow="visible"
         id="symbol7208">
        <path
           style="stroke:none"
           d=""
           id="path6355" />
      </symbol>
      <symbol
         overflow="visible"
         id="symbol2704">
        <path
           style="stroke:none"
           d="m 6.5625,-2.296875 c 0.171875,0 0.359375,0 0.359375,-0.203125 0,-0.1875 -0.1875,-0.1875 -0.359375,-0.1875 H 1.171875 c -0.171875,0 -0.34375,0 -0.34375,0.1875 0,0.203125 0.171875,0.203125 0.34375,0.203125 z m 0,0"
           id="path4790" />
      </symbol>
    </g>
    <g
       id="g6833">
      <symbol
         overflow="visible"
         id="symbol2628">
        <path
           style="stroke:none"
           d=""
           id="path7325" />
      </symbol>
      <symbol
         overflow="visible"
         id="symbol9784">
        <path
           style="stroke:none"
           d="m 4.359375,-6.671875 c 0,-0.03125 0.03125,-0.140625 0.03125,-0.140625 0,-0.015625 0,-0.109375 -0.125,-0.109375 -0.09375,0 -0.109375,0.03125 -0.15625,0.203125 L 3.53125,-4.421875 c -1.578125,0.0625 -3.046875,1.375 -3.046875,2.734375 0,0.953125 0.703125,1.734375 1.921875,1.8125 C 2.328125,0.421875 2.25,0.75 2.171875,1.0625 c -0.125,0.46875 -0.21875,0.84375 -0.21875,0.875 0,0.09375 0.078125,0.109375 0.125,0.109375 C 2.125,2.046875 2.140625,2.03125 2.171875,2 2.1875,1.984375 2.25,1.75 2.28125,1.609375 L 2.65625,0.125 c 1.609375,-0.0625 3.0625,-1.40625 3.0625,-2.734375 0,-0.796875 -0.53125,-1.703125 -1.921875,-1.8125 z m -1.90625,6.578125 c -0.59375,-0.03125 -1.3125,-0.390625 -1.3125,-1.375 0,-1.203125 0.859375,-2.59375 2.34375,-2.734375 z m 1.28125,-4.109375 c 0.765625,0.046875 1.328125,0.5 1.328125,1.375 0,1.1875 -0.859375,2.609375 -2.34375,2.734375 z m 0,0"
           id="path2609" />
      </symbol>
    </g>
    <g
       id="g4342">
      <symbol
         overflow="visible"
         id="symbol9765">
        <path
           style="stroke:none"
           d=""
           id="path8988" />
      </symbol>
      <symbol
         overflow="visible"
         id="symbol7309">
        <path
           style="stroke:none"
           d="m 2.859375,-6.8125 c 0,0 0,-0.109375 -0.125,-0.109375 -0.234375,0 -0.953125,0.078125 -1.21875,0.109375 -0.078125,0 -0.1875,0.015625 -0.1875,0.1875 0,0.125 0.09375,0.125 0.234375,0.125 0.484375,0 0.5,0.0625 0.5,0.171875 L 2.03125,-6.125 0.59375,-0.390625 c -0.046875,0.140625 -0.046875,0.15625 -0.046875,0.21875 0,0.234375 0.203125,0.28125 0.296875,0.28125 0.125,0 0.265625,-0.09375 0.328125,-0.203125 0.046875,-0.09375 0.5,-1.9375 0.5625,-2.1875 0.34375,0.03125 1.15625,0.1875 1.15625,0.84375 0,0.078125 0,0.109375 -0.03125,0.21875 -0.015625,0.109375 -0.03125,0.234375 -0.03125,0.34375 0,0.578125 0.390625,0.984375 0.90625,0.984375 0.296875,0 0.578125,-0.15625 0.796875,-0.53125 0.25,-0.4375 0.359375,-0.984375 0.359375,-1 0,-0.109375 -0.09375,-0.109375 -0.125,-0.109375 -0.09375,0 -0.109375,0.046875 -0.140625,0.1875 -0.203125,0.71875 -0.421875,1.234375 -0.859375,1.234375 -0.203125,0 -0.328125,-0.109375 -0.328125,-0.46875 0,-0.171875 0.046875,-0.40625 0.078125,-0.5625 C 3.5625,-1.3125 3.5625,-1.34375 3.5625,-1.453125 3.5625,-2.09375 2.9375,-2.375 2.078125,-2.5 2.390625,-2.671875 2.71875,-2.984375 2.9375,-3.234375 3.421875,-3.765625 3.875,-4.1875 4.359375,-4.1875 c 0.0625,0 0.078125,0 0.09375,0.015625 0.125,0.015625 0.125,0.015625 0.21875,0.078125 0.015625,0 0.015625,0.015625 0.03125,0.03125 -0.46875,0.03125 -0.5625,0.421875 -0.5625,0.546875 0,0.15625 0.109375,0.34375 0.375,0.34375 0.265625,0 0.546875,-0.21875 0.546875,-0.609375 0,-0.296875 -0.234375,-0.625 -0.671875,-0.625 -0.28125,0 -0.734375,0.078125 -1.453125,0.875 -0.34375,0.375 -0.734375,0.78125 -1.109375,0.921875 z m 0,0"
           id="path1421" />
      </symbol>
      <symbol
         overflow="visible"
         id="symbol457">
        <path
           style="stroke:none"
           d="M 4.828125,-4.09375 4,-6.078125 c -0.03125,-0.078125 -0.046875,-0.125 -0.046875,-0.125 0,-0.0625 0.15625,-0.25 0.578125,-0.296875 0.109375,-0.015625 0.203125,-0.015625 0.203125,-0.1875 0,-0.125 -0.125,-0.125 -0.15625,-0.125 -0.40625,0 -0.828125,0.03125 -1.25,0.03125 -0.25,0 -0.859375,-0.03125 -1.109375,-0.03125 -0.0625,0 -0.1875,0 -0.1875,0.203125 C 2.03125,-6.5 2.140625,-6.5 2.265625,-6.5 c 0.59375,0 0.65625,0.09375 0.75,0.3125 l 1.171875,2.78125 -2.109375,2.265625 -0.125,0.109375 C 1.46875,-0.5 1,-0.34375 0.484375,-0.3125 c -0.125,0.015625 -0.21875,0.015625 -0.21875,0.203125 0,0.015625 0,0.109375 0.140625,0.109375 0.296875,0 0.625,-0.03125 0.921875,-0.03125 C 1.703125,-0.03125 2.09375,0 2.453125,0 2.515625,0 2.625,0 2.625,-0.203125 2.625,-0.296875 2.53125,-0.3125 2.515625,-0.3125 c -0.09375,0 -0.40625,-0.03125 -0.40625,-0.3125 0,-0.15625 0.15625,-0.3125 0.265625,-0.4375 L 3.40625,-2.140625 4.296875,-3.125 l 1,2.390625 c 0.046875,0.109375 0.0625,0.109375 0.0625,0.140625 0,0.078125 -0.203125,0.25 -0.578125,0.28125 C 4.671875,-0.296875 4.578125,-0.296875 4.578125,-0.125 4.578125,0 4.6875,0 4.71875,0 5,0 5.703125,-0.03125 5.984375,-0.03125 6.234375,-0.03125 6.84375,0 7.09375,0 c 0.0625,0 0.1875,0 0.1875,-0.1875 0,-0.125 -0.109375,-0.125 -0.1875,-0.125 -0.65625,0 -0.6875,-0.03125 -0.859375,-0.4375 C 5.859375,-1.671875 5.1875,-3.234375 4.953125,-3.828125 5.625,-4.53125 6.671875,-5.71875 7,-5.984375 7.28125,-6.234375 7.671875,-6.46875 8.265625,-6.5 c 0.125,-0.015625 0.21875,-0.015625 0.21875,-0.203125 0,0 0,-0.109375 -0.125,-0.109375 -0.296875,0 -0.640625,0.03125 -0.9375,0.03125 -0.375,0 -0.75,-0.03125 -1.109375,-0.03125 -0.0625,0 -0.1875,0 -0.1875,0.203125 0,0.0625 0.046875,0.09375 0.109375,0.109375 0.09375,0.015625 0.40625,0.03125 0.40625,0.3125 0,0.140625 -0.109375,0.265625 -0.1875,0.359375 z m 0,0"
           id="path7134" />
      </symbol>
    </g>
    <g
       id="g8195">
      <symbol
         overflow="visible"
         id="symbol6327">
        <path
           style="stroke:none"
           d=""
           id="path6390" />
      </symbol>
      <symbol
         overflow="visible"
         id="symbol5289">
        <path
           style="stroke:none"
           d="m 3.953125,-3.78125 c -0.171875,0 -0.296875,0 -0.4375,0.125 -0.171875,0.15625 -0.1875,0.328125 -0.1875,0.390625 0,0.25 0.1875,0.359375 0.375,0.359375 0.28125,0 0.546875,-0.25 0.546875,-0.640625 0,-0.484375 -0.46875,-0.859375 -1.171875,-0.859375 -1.34375,0 -2.671875,1.421875 -2.671875,2.828125 0,0.90625 0.578125,1.6875 1.625,1.6875 1.421875,0 2.25,-1.0625 2.25,-1.171875 0,-0.0625 -0.046875,-0.140625 -0.109375,-0.140625 -0.0625,0 -0.078125,0.03125 -0.140625,0.109375 -0.78125,0.984375 -1.875,0.984375 -1.984375,0.984375 -0.625,0 -0.90625,-0.484375 -0.90625,-1.09375 0,-0.40625 0.203125,-1.375 0.546875,-1.984375 0.3125,-0.578125 0.859375,-1 1.40625,-1 0.328125,0 0.71875,0.125 0.859375,0.40625 z m 0,0"
           id="path1487" />
      </symbol>
      <symbol
         overflow="visible"
         id="symbol3511">
        <path
           style="stroke:none"
           d="m 6.03125,-3.703125 c 0,-0.453125 -0.171875,-0.703125 -0.40625,-0.703125 -0.25,0 -0.515625,0.234375 -0.515625,0.46875 0,0.09375 0.046875,0.203125 0.140625,0.296875 0.171875,0.15625 0.359375,0.421875 0.359375,0.84375 0,0.390625 -0.203125,0.96875 -0.5,1.421875 C 4.8125,-0.953125 4.4375,-0.609375 3.96875,-0.609375 3.40625,-0.609375 3.09375,-0.96875 3,-1.5 c 0.109375,-0.265625 0.34375,-0.90625 0.34375,-1.1875 0,-0.109375 -0.046875,-0.21875 -0.1875,-0.21875 -0.078125,0 -0.1875,0.03125 -0.265625,0.171875 C 2.78125,-2.53125 2.65625,-1.890625 2.65625,-1.53125 2.328125,-1.0625 1.9375,-0.609375 1.3125,-0.609375 c -0.671875,0 -0.875,-0.59375 -0.875,-1.140625 0,-1.25 1.015625,-2.296875 1.015625,-2.421875 0,-0.109375 -0.078125,-0.1875 -0.1875,-0.1875 -0.125,0 -0.203125,0.125 -0.265625,0.21875 -0.5,0.734375 -0.875,1.921875 -0.875,2.828125 0,0.6875 0.21875,1.421875 1.046875,1.421875 0.703125,0 1.171875,-0.5 1.53125,-1.046875 0.09375,0.578125 0.484375,1.046875 1.09375,1.046875 0.78125,0 1.25,-0.609375 1.609375,-1.359375 0.25,-0.484375 0.625,-1.84375 0.625,-2.453125 z m 0,0"
           id="path3060" />
      </symbol>
      <symbol
         overflow="visible"
         id="symbol6347">
        <path
           style="stroke:none"
           d="M 4.828125,-4.09375 4,-6.078125 c -0.03125,-0.078125 -0.046875,-0.125 -0.046875,-0.125 0,-0.0625 0.15625,-0.25 0.578125,-0.296875 0.109375,-0.015625 0.203125,-0.015625 0.203125,-0.1875 0,-0.125 -0.125,-0.125 -0.15625,-0.125 -0.40625,0 -0.828125,0.03125 -1.25,0.03125 -0.25,0 -0.859375,-0.03125 -1.109375,-0.03125 -0.0625,0 -0.1875,0 -0.1875,0.203125 C 2.03125,-6.5 2.140625,-6.5 2.265625,-6.5 c 0.59375,0 0.65625,0.09375 0.75,0.3125 l 1.171875,2.78125 -2.109375,2.265625 -0.125,0.109375 C 1.46875,-0.5 1,-0.34375 0.484375,-0.3125 c -0.125,0.015625 -0.21875,0.015625 -0.21875,0.203125 0,0.015625 0,0.109375 0.140625,0.109375 0.296875,0 0.625,-0.03125 0.921875,-0.03125 C 1.703125,-0.03125 2.09375,0 2.453125,0 2.515625,0 2.625,0 2.625,-0.203125 2.625,-0.296875 2.53125,-0.3125 2.515625,-0.3125 c -0.09375,0 -0.40625,-0.03125 -0.40625,-0.3125 0,-0.15625 0.15625,-0.3125 0.265625,-0.4375 L 3.40625,-2.140625 4.296875,-3.125 l 1,2.390625 c 0.046875,0.109375 0.0625,0.109375 0.0625,0.140625 0,0.078125 -0.203125,0.25 -0.578125,0.28125 C 4.671875,-0.296875 4.578125,-0.296875 4.578125,-0.125 4.578125,0 4.6875,0 4.71875,0 5,0 5.703125,-0.03125 5.984375,-0.03125 6.234375,-0.03125 6.84375,0 7.09375,0 c 0.0625,0 0.1875,0 0.1875,-0.1875 0,-0.125 -0.109375,-0.125 -0.1875,-0.125 -0.65625,0 -0.6875,-0.03125 -0.859375,-0.4375 C 5.859375,-1.671875 5.1875,-3.234375 4.953125,-3.828125 5.625,-4.53125 6.671875,-5.71875 7,-5.984375 7.28125,-6.234375 7.671875,-6.46875 8.265625,-6.5 c 0.125,-0.015625 0.21875,-0.015625 0.21875,-0.203125 0,0 0,-0.109375 -0.125,-0.109375 -0.296875,0 -0.640625,0.03125 -0.9375,0.03125 -0.375,0 -0.75,-0.03125 -1.109375,-0.03125 -0.0625,0 -0.1875,0 -0.1875,0.203125 0,0.0625 0.046875,0.09375 0.109375,0.109375 0.09375,0.015625 0.40625,0.03125 0.40625,0.3125 0,0.140625 -0.109375,0.265625 -0.1875,0.359375 z m 0,0"
           id="path3433" />
      </symbol>
    </g>
    <g
       id="g6121">
      <symbol
         overflow="visible"
         id="symbol1898">
        <path
           style="stroke:none"
           d=""
           id="path7037" />
      </symbol>
      <symbol
         overflow="visible"
         id="symbol1352">
        <path
           style="stroke:none"
           d="m 0.875,-0.59375 c -0.03125,0.15625 -0.09375,0.390625 -0.09375,0.4375 0,0.171875 0.140625,0.265625 0.296875,0.265625 0.125,0 0.296875,-0.078125 0.375,-0.28125 0,-0.015625 0.125,-0.484375 0.1875,-0.734375 l 0.21875,-0.890625 C 1.90625,-2.03125 1.96875,-2.25 2.03125,-2.46875 c 0.03125,-0.171875 0.109375,-0.46875 0.125,-0.5 0.140625,-0.3125 0.671875,-1.21875 1.625,-1.21875 0.453125,0 0.53125,0.375 0.53125,0.703125 0,0.25 -0.0625,0.53125 -0.140625,0.828125 L 3.890625,-1.5 3.6875,-0.75 c -0.03125,0.203125 -0.125,0.546875 -0.125,0.59375 0,0.171875 0.140625,0.265625 0.28125,0.265625 0.3125,0 0.375,-0.25 0.453125,-0.5625 0.140625,-0.5625 0.515625,-2.015625 0.59375,-2.40625 0.03125,-0.125 0.5625,-1.328125 1.65625,-1.328125 0.421875,0 0.53125,0.34375 0.53125,0.703125 0,0.5625 -0.421875,1.703125 -0.625,2.234375 -0.078125,0.234375 -0.125,0.34375 -0.125,0.546875 0,0.46875 0.34375,0.8125 0.8125,0.8125 0.9375,0 1.3125,-1.453125 1.3125,-1.53125 0,-0.109375 -0.09375,-0.109375 -0.125,-0.109375 -0.09375,0 -0.09375,0.03125 -0.140625,0.1875 -0.15625,0.53125 -0.46875,1.234375 -1.015625,1.234375 -0.171875,0 -0.25,-0.09375 -0.25,-0.328125 0,-0.25 0.09375,-0.484375 0.1875,-0.703125 0.1875,-0.53125 0.609375,-1.625 0.609375,-2.203125 0,-0.640625 -0.40625,-1.0625 -1.15625,-1.0625 -0.734375,0 -1.25,0.4375 -1.625,0.96875 0,-0.125 -0.03125,-0.46875 -0.3125,-0.703125 -0.25,-0.21875 -0.5625,-0.265625 -0.8125,-0.265625 -0.90625,0 -1.390625,0.640625 -1.5625,0.875 -0.046875,-0.578125 -0.46875,-0.875 -0.921875,-0.875 -0.453125,0 -0.640625,0.390625 -0.734375,0.5625 -0.171875,0.359375 -0.296875,0.9375 -0.296875,0.96875 0,0.109375 0.09375,0.109375 0.109375,0.109375 0.109375,0 0.109375,-0.015625 0.171875,-0.234375 0.171875,-0.703125 0.375,-1.1875 0.734375,-1.1875 0.15625,0 0.296875,0.078125 0.296875,0.453125 0,0.21875 -0.03125,0.328125 -0.15625,0.84375 z m 0,0"
           id="path6056" />
      </symbol>
      <symbol
         overflow="visible"
         id="symbol8282">
        <path
           style="stroke:none"
           d="m 6.03125,-3.703125 c 0,-0.453125 -0.171875,-0.703125 -0.40625,-0.703125 -0.25,0 -0.515625,0.234375 -0.515625,0.46875 0,0.09375 0.046875,0.203125 0.140625,0.296875 0.171875,0.15625 0.359375,0.421875 0.359375,0.84375 0,0.390625 -0.203125,0.96875 -0.5,1.421875 C 4.8125,-0.953125 4.4375,-0.609375 3.96875,-0.609375 3.40625,-0.609375 3.09375,-0.96875 3,-1.5 c 0.109375,-0.265625 0.34375,-0.90625 0.34375,-1.1875 0,-0.109375 -0.046875,-0.21875 -0.1875,-0.21875 -0.078125,0 -0.1875,0.03125 -0.265625,0.171875 C 2.78125,-2.53125 2.65625,-1.890625 2.65625,-1.53125 2.328125,-1.0625 1.9375,-0.609375 1.3125,-0.609375 c -0.671875,0 -0.875,-0.59375 -0.875,-1.140625 0,-1.25 1.015625,-2.296875 1.015625,-2.421875 0,-0.109375 -0.078125,-0.1875 -0.1875,-0.1875 -0.125,0 -0.203125,0.125 -0.265625,0.21875 -0.5,0.734375 -0.875,1.921875 -0.875,2.828125 0,0.6875 0.21875,1.421875 1.046875,1.421875 0.703125,0 1.171875,-0.5 1.53125,-1.046875 0.09375,0.578125 0.484375,1.046875 1.09375,1.046875 0.78125,0 1.25,-0.609375 1.609375,-1.359375 0.25,-0.484375 0.625,-1.84375 0.625,-2.453125 z m 0,0"
           id="path8015" />
      </symbol>
      <symbol
         overflow="visible"
         id="symbol4375">
        <path
           style="stroke:none"
           d="M 4.828125,-4.09375 4,-6.078125 c -0.03125,-0.078125 -0.046875,-0.125 -0.046875,-0.125 0,-0.0625 0.15625,-0.25 0.578125,-0.296875 0.109375,-0.015625 0.203125,-0.015625 0.203125,-0.1875 0,-0.125 -0.125,-0.125 -0.15625,-0.125 -0.40625,0 -0.828125,0.03125 -1.25,0.03125 -0.25,0 -0.859375,-0.03125 -1.109375,-0.03125 -0.0625,0 -0.1875,0 -0.1875,0.203125 C 2.03125,-6.5 2.140625,-6.5 2.265625,-6.5 c 0.59375,0 0.65625,0.09375 0.75,0.3125 l 1.171875,2.78125 -2.109375,2.265625 -0.125,0.109375 C 1.46875,-0.5 1,-0.34375 0.484375,-0.3125 c -0.125,0.015625 -0.21875,0.015625 -0.21875,0.203125 0,0.015625 0,0.109375 0.140625,0.109375 0.296875,0 0.625,-0.03125 0.921875,-0.03125 C 1.703125,-0.03125 2.09375,0 2.453125,0 2.515625,0 2.625,0 2.625,-0.203125 2.625,-0.296875 2.53125,-0.3125 2.515625,-0.3125 c -0.09375,0 -0.40625,-0.03125 -0.40625,-0.3125 0,-0.15625 0.15625,-0.3125 0.265625,-0.4375 L 3.40625,-2.140625 4.296875,-3.125 l 1,2.390625 c 0.046875,0.109375 0.0625,0.109375 0.0625,0.140625 0,0.078125 -0.203125,0.25 -0.578125,0.28125 C 4.671875,-0.296875 4.578125,-0.296875 4.578125,-0.125 4.578125,0 4.6875,0 4.71875,0 5,0 5.703125,-0.03125 5.984375,-0.03125 6.234375,-0.03125 6.84375,0 7.09375,0 c 0.0625,0 0.1875,0 0.1875,-0.1875 0,-0.125 -0.109375,-0.125 -0.1875,-0.125 -0.65625,0 -0.6875,-0.03125 -0.859375,-0.4375 C 5.859375,-1.671875 5.1875,-3.234375 4.953125,-3.828125 5.625,-4.53125 6.671875,-5.71875 7,-5.984375 7.28125,-6.234375 7.671875,-6.46875 8.265625,-6.5 c 0.125,-0.015625 0.21875,-0.015625 0.21875,-0.203125 0,0 0,-0.109375 -0.125,-0.109375 -0.296875,0 -0.640625,0.03125 -0.9375,0.03125 -0.375,0 -0.75,-0.03125 -1.109375,-0.03125 -0.0625,0 -0.1875,0 -0.1875,0.203125 0,0.0625 0.046875,0.09375 0.109375,0.109375 0.09375,0.015625 0.40625,0.03125 0.40625,0.3125 0,0.140625 -0.109375,0.265625 -0.1875,0.359375 z m 0,0"
           id="path2779" />
      </symbol>
      <symbol
         overflow="visible"
         id="symbol7388">
        <path
           style="stroke:none"
           d=""
           id="path4262" />
      </symbol>
      <symbol
         overflow="visible"
         id="symbol4076">
        <path
           style="stroke:none"
           d="M 3.515625,-1.265625 H 3.28125 c -0.015625,0.15625 -0.09375,0.5625 -0.1875,0.625 C 3.046875,-0.59375 2.515625,-0.59375 2.40625,-0.59375 H 1.125 c 0.734375,-0.640625 0.984375,-0.84375 1.390625,-1.171875 0.515625,-0.40625 1,-0.84375 1,-1.5 0,-0.84375 -0.734375,-1.359375 -1.625,-1.359375 -0.859375,0 -1.453125,0.609375 -1.453125,1.25 0,0.34375 0.296875,0.390625 0.375,0.390625 0.15625,0 0.359375,-0.125 0.359375,-0.375 0,-0.125 -0.046875,-0.375 -0.40625,-0.375 C 0.984375,-4.21875 1.453125,-4.375 1.78125,-4.375 c 0.703125,0 1.0625,0.546875 1.0625,1.109375 0,0.609375 -0.4375,1.078125 -0.65625,1.328125 L 0.515625,-0.265625 C 0.4375,-0.203125 0.4375,-0.1875 0.4375,0 h 2.875 z m 0,0"
           id="path6985" />
      </symbol>
    </g>
    <g
       id="g920">
      <symbol
         overflow="visible"
         id="symbol1536">
        <path
           style="stroke:none"
           d=""
           id="path6293" />
      </symbol>
      <symbol
         overflow="visible"
         id="symbol6497">
        <path
           style="stroke:none"
           d="m 1.171875,-2.171875 c 0,-1.625 0.8125,-2.046875 1.34375,-2.046875 0.09375,0 0.71875,0.015625 1.0625,0.375 -0.40625,0.03125 -0.46875,0.328125 -0.46875,0.453125 0,0.265625 0.1875,0.453125 0.453125,0.453125 0.265625,0 0.46875,-0.15625 0.46875,-0.46875 0,-0.671875 -0.765625,-1.0625 -1.53125,-1.0625 -1.25,0 -2.15625,1.078125 -2.15625,2.3125 0,1.28125 0.984375,2.265625 2.140625,2.265625 1.328125,0 1.65625,-1.203125 1.65625,-1.296875 0,-0.09375 -0.109375,-0.09375 -0.140625,-0.09375 -0.078125,0 -0.109375,0.03125 -0.125,0.09375 -0.28125,0.921875 -0.9375,1.046875 -1.296875,1.046875 -0.53125,0 -1.40625,-0.421875 -1.40625,-2.03125 z m 0,0"
           id="path6362" />
      </symbol>
      <symbol
         overflow="visible"
         id="symbol4445">
        <path
           style="stroke:none"
           d="M 4.6875,-2.140625 C 4.6875,-3.40625 3.703125,-4.46875 2.5,-4.46875 c -1.25,0 -2.21875,1.09375 -2.21875,2.328125 0,1.296875 1.03125,2.25 2.203125,2.25 1.203125,0 2.203125,-0.984375 2.203125,-2.25 z m -2.1875,2 c -0.4375,0 -0.875,-0.203125 -1.140625,-0.671875 -0.25,-0.4375 -0.25,-1.046875 -0.25,-1.40625 0,-0.390625 0,-0.921875 0.234375,-1.359375 C 1.609375,-4.03125 2.078125,-4.25 2.484375,-4.25 c 0.4375,0 0.859375,0.21875 1.125,0.65625 0.265625,0.421875 0.265625,1 0.265625,1.375 0,0.359375 0,0.90625 -0.21875,1.34375 C 3.421875,-0.421875 2.984375,-0.140625 2.5,-0.140625 Z m 0,0"
           id="path8542" />
      </symbol>
      <symbol
         overflow="visible"
         id="symbol7361">
        <path
           style="stroke:none"
           d="m 2.078125,-1.9375 c 0.21875,0.046875 1.03125,0.203125 1.03125,0.921875 0,0.5 -0.34375,0.90625 -1.125,0.90625 -0.84375,0 -1.203125,-0.5625 -1.390625,-1.421875 C 0.5625,-1.65625 0.5625,-1.6875 0.453125,-1.6875 c -0.125,0 -0.125,0.0625 -0.125,0.234375 V -0.125 c 0,0.171875 0,0.234375 0.109375,0.234375 0.046875,0 0.0625,-0.015625 0.25,-0.203125 0.015625,-0.015625 0.015625,-0.03125 0.203125,-0.21875 0.4375,0.40625 0.890625,0.421875 1.09375,0.421875 1.140625,0 1.609375,-0.671875 1.609375,-1.390625 0,-0.515625 -0.296875,-0.828125 -0.421875,-0.9375 C 2.84375,-2.546875 2.453125,-2.625 2.03125,-2.703125 1.46875,-2.8125 0.8125,-2.9375 0.8125,-3.515625 c 0,-0.359375 0.25,-0.765625 1.109375,-0.765625 1.09375,0 1.15625,0.90625 1.171875,1.203125 0,0.09375 0.09375,0.09375 0.109375,0.09375 0.140625,0 0.140625,-0.046875 0.140625,-0.234375 v -1.015625 c 0,-0.15625 0,-0.234375 -0.109375,-0.234375 -0.046875,0 -0.078125,0 -0.203125,0.125 -0.03125,0.03125 -0.125,0.125 -0.171875,0.15625 -0.375,-0.28125 -0.78125,-0.28125 -0.9375,-0.28125 -1.21875,0 -1.59375,0.671875 -1.59375,1.234375 0,0.34375 0.15625,0.625 0.421875,0.84375 0.328125,0.25 0.609375,0.3125 1.328125,0.453125 z m 0,0"
           id="path7213" />
      </symbol>
      <symbol
         overflow="visible"
         id="symbol7668">
        <path
           style="stroke:none"
           d="M 1.09375,-3.421875 V -0.75 c 0,0.4375 -0.109375,0.4375 -0.78125,0.4375 V 0 c 0.359375,-0.015625 0.859375,-0.03125 1.140625,-0.03125 0.25,0 0.765625,0.015625 1.109375,0.03125 v -0.3125 c -0.671875,0 -0.78125,0 -0.78125,-0.4375 V -2.59375 C 1.78125,-3.625 2.5,-4.1875 3.125,-4.1875 c 0.640625,0 0.75,0.53125 0.75,1.109375 V -0.75 c 0,0.4375 -0.109375,0.4375 -0.78125,0.4375 V 0 c 0.34375,-0.015625 0.859375,-0.03125 1.125,-0.03125 0.25,0 0.78125,0.015625 1.109375,0.03125 v -0.3125 c -0.65625,0 -0.765625,0 -0.765625,-0.4375 v -1.84375 c 0,-1.03125 0.703125,-1.59375 1.34375,-1.59375 0.625,0 0.734375,0.53125 0.734375,1.109375 V -0.75 c 0,0.4375 -0.109375,0.4375 -0.78125,0.4375 V 0 c 0.34375,-0.015625 0.859375,-0.03125 1.125,-0.03125 0.265625,0 0.78125,0.015625 1.125,0.03125 v -0.3125 c -0.515625,0 -0.765625,0 -0.78125,-0.296875 v -1.90625 c 0,-0.859375 0,-1.15625 -0.3125,-1.515625 -0.140625,-0.171875 -0.46875,-0.375 -1.046875,-0.375 -0.828125,0 -1.28125,0.59375 -1.4375,0.984375 C 4.390625,-4.296875 3.65625,-4.40625 3.203125,-4.40625 2.46875,-4.40625 2,-3.984375 1.71875,-3.359375 V -4.40625 L 0.3125,-4.296875 v 0.3125 c 0.703125,0 0.78125,0.0625 0.78125,0.5625 z m 0,0"
           id="path8721" />
      </symbol>
      <symbol
         overflow="visible"
         id="symbol4000">
        <path
           style="stroke:none"
           d="m 1.71875,-3.75 v -0.65625 l -1.4375,0.109375 v 0.3125 c 0.703125,0 0.78125,0.0625 0.78125,0.5 v 4.65625 C 1.0625,1.625 0.953125,1.625 0.28125,1.625 V 1.9375 C 0.625,1.921875 1.140625,1.90625 1.390625,1.90625 c 0.28125,0 0.78125,0.015625 1.125,0.03125 V 1.625 C 1.859375,1.625 1.75,1.625 1.75,1.171875 V -0.59375 c 0.046875,0.171875 0.46875,0.703125 1.21875,0.703125 1.1875,0 2.21875,-0.984375 2.21875,-2.265625 0,-1.265625 -0.953125,-2.25 -2.078125,-2.25 -0.78125,0 -1.203125,0.4375 -1.390625,0.65625 z M 1.75,-1.140625 v -2.21875 C 2.03125,-3.875 2.515625,-4.15625 3.03125,-4.15625 c 0.734375,0 1.328125,0.875 1.328125,2 0,1.203125 -0.6875,2.046875 -1.421875,2.046875 -0.40625,0 -0.78125,-0.203125 -1.046875,-0.609375 C 1.75,-0.921875 1.75,-0.9375 1.75,-1.140625 Z m 0,0"
           id="path7277" />
      </symbol>
      <symbol
         overflow="visible"
         id="symbol9997">
        <path
           style="stroke:none"
           d="M 1.09375,-3.421875 V -0.75 c 0,0.4375 -0.109375,0.4375 -0.78125,0.4375 V 0 c 0.359375,-0.015625 0.859375,-0.03125 1.140625,-0.03125 0.25,0 0.765625,0.015625 1.109375,0.03125 v -0.3125 c -0.671875,0 -0.78125,0 -0.78125,-0.4375 V -2.59375 C 1.78125,-3.625 2.5,-4.1875 3.125,-4.1875 c 0.640625,0 0.75,0.53125 0.75,1.109375 V -0.75 c 0,0.4375 -0.109375,0.4375 -0.78125,0.4375 V 0 c 0.34375,-0.015625 0.859375,-0.03125 1.125,-0.03125 0.25,0 0.78125,0.015625 1.109375,0.03125 v -0.3125 c -0.515625,0 -0.765625,0 -0.765625,-0.296875 v -1.90625 c 0,-0.859375 0,-1.15625 -0.3125,-1.515625 -0.140625,-0.171875 -0.46875,-0.375 -1.046875,-0.375 C 2.46875,-4.40625 2,-3.984375 1.71875,-3.359375 V -4.40625 L 0.3125,-4.296875 v 0.3125 c 0.703125,0 0.78125,0.0625 0.78125,0.5625 z m 0,0"
           id="path9853" />
      </symbol>
      <symbol
         overflow="visible"
         id="symbol7412">
        <path
           style="stroke:none"
           d="M 1.109375,-2.515625 C 1.171875,-4 2.015625,-4.25 2.359375,-4.25 c 1.015625,0 1.125,1.34375 1.125,1.734375 z m 0,0.21875 h 2.78125 c 0.21875,0 0.25,0 0.25,-0.21875 0,-0.984375 -0.546875,-1.953125 -1.78125,-1.953125 -1.15625,0 -2.078125,1.03125 -2.078125,2.28125 0,1.328125 1.046875,2.296875 2.1875,2.296875 C 3.6875,0.109375 4.140625,-1 4.140625,-1.1875 4.140625,-1.28125 4.0625,-1.3125 4,-1.3125 c -0.078125,0 -0.109375,0.0625 -0.125,0.140625 -0.34375,1.03125 -1.25,1.03125 -1.34375,1.03125 -0.5,0 -0.890625,-0.296875 -1.125,-0.671875 -0.296875,-0.46875 -0.296875,-1.125 -0.296875,-1.484375 z m 0,0"
           id="path8070" />
      </symbol>
      <symbol
         overflow="visible"
         id="symbol8478">
        <path
           style="stroke:none"
           d="m 1.71875,-3.984375 h 1.4375 v -0.3125 H 1.71875 V -6.125 h -0.25 c 0,0.8125 -0.296875,1.875 -1.28125,1.921875 v 0.21875 h 0.84375 v 2.75 c 0,1.21875 0.9375,1.34375 1.296875,1.34375 0.703125,0 0.984375,-0.703125 0.984375,-1.34375 v -0.5625 h -0.25 V -1.25 c 0,0.734375 -0.296875,1.109375 -0.671875,1.109375 -0.671875,0 -0.671875,-0.90625 -0.671875,-1.078125 z m 0,0"
           id="path897" />
      </symbol>
    </g>
    <g
       id="g1071">
      <symbol
         overflow="visible"
         id="symbol8018">
        <path
           style="stroke:none"
           d=""
           id="path7602" />
      </symbol>
      <symbol
         overflow="visible"
         id="symbol3421">
        <path
           style="stroke:none"
           d="m 1.171875,-2.171875 c 0,-1.625 0.8125,-2.046875 1.34375,-2.046875 0.09375,0 0.71875,0.015625 1.0625,0.375 -0.40625,0.03125 -0.46875,0.328125 -0.46875,0.453125 0,0.265625 0.1875,0.453125 0.453125,0.453125 0.265625,0 0.46875,-0.15625 0.46875,-0.46875 0,-0.671875 -0.765625,-1.0625 -1.53125,-1.0625 -1.25,0 -2.15625,1.078125 -2.15625,2.3125 0,1.28125 0.984375,2.265625 2.140625,2.265625 1.328125,0 1.65625,-1.203125 1.65625,-1.296875 0,-0.09375 -0.109375,-0.09375 -0.140625,-0.09375 -0.078125,0 -0.109375,0.03125 -0.125,0.09375 -0.28125,0.921875 -0.9375,1.046875 -1.296875,1.046875 -0.53125,0 -1.40625,-0.421875 -1.40625,-2.03125 z m 0,0"
           id="path5815" />
      </symbol>
      <symbol
         overflow="visible"
         id="symbol8809">
        <path
           style="stroke:none"
           d="M 4.6875,-2.140625 C 4.6875,-3.40625 3.703125,-4.46875 2.5,-4.46875 c -1.25,0 -2.21875,1.09375 -2.21875,2.328125 0,1.296875 1.03125,2.25 2.203125,2.25 1.203125,0 2.203125,-0.984375 2.203125,-2.25 z m -2.1875,2 c -0.4375,0 -0.875,-0.203125 -1.140625,-0.671875 -0.25,-0.4375 -0.25,-1.046875 -0.25,-1.40625 0,-0.390625 0,-0.921875 0.234375,-1.359375 C 1.609375,-4.03125 2.078125,-4.25 2.484375,-4.25 c 0.4375,0 0.859375,0.21875 1.125,0.65625 0.265625,0.421875 0.265625,1 0.265625,1.375 0,0.359375 0,0.90625 -0.21875,1.34375 C 3.421875,-0.421875 2.984375,-0.140625 2.5,-0.140625 Z m 0,0"
           id="path5866" />
      </symbol>
      <symbol
         overflow="visible"
         id="symbol9519">
        <path
           style="stroke:none"
           d="m 2.078125,-1.9375 c 0.21875,0.046875 1.03125,0.203125 1.03125,0.921875 0,0.5 -0.34375,0.90625 -1.125,0.90625 -0.84375,0 -1.203125,-0.5625 -1.390625,-1.421875 C 0.5625,-1.65625 0.5625,-1.6875 0.453125,-1.6875 c -0.125,0 -0.125,0.0625 -0.125,0.234375 V -0.125 c 0,0.171875 0,0.234375 0.109375,0.234375 0.046875,0 0.0625,-0.015625 0.25,-0.203125 0.015625,-0.015625 0.015625,-0.03125 0.203125,-0.21875 0.4375,0.40625 0.890625,0.421875 1.09375,0.421875 1.140625,0 1.609375,-0.671875 1.609375,-1.390625 0,-0.515625 -0.296875,-0.828125 -0.421875,-0.9375 C 2.84375,-2.546875 2.453125,-2.625 2.03125,-2.703125 1.46875,-2.8125 0.8125,-2.9375 0.8125,-3.515625 c 0,-0.359375 0.25,-0.765625 1.109375,-0.765625 1.09375,0 1.15625,0.90625 1.171875,1.203125 0,0.09375 0.09375,0.09375 0.109375,0.09375 0.140625,0 0.140625,-0.046875 0.140625,-0.234375 v -1.015625 c 0,-0.15625 0,-0.234375 -0.109375,-0.234375 -0.046875,0 -0.078125,0 -0.203125,0.125 -0.03125,0.03125 -0.125,0.125 -0.171875,0.15625 -0.375,-0.28125 -0.78125,-0.28125 -0.9375,-0.28125 -1.21875,0 -1.59375,0.671875 -1.59375,1.234375 0,0.34375 0.15625,0.625 0.421875,0.84375 0.328125,0.25 0.609375,0.3125 1.328125,0.453125 z m 0,0"
           id="path8877" />
      </symbol>
      <symbol
         overflow="visible"
         id="symbol7651">
        <path
           style="stroke:none"
           d="M 1.765625,-4.40625 0.375,-4.296875 v 0.3125 c 0.640625,0 0.734375,0.0625 0.734375,0.546875 V -0.75 c 0,0.4375 -0.109375,0.4375 -0.78125,0.4375 V 0 C 0.640625,-0.015625 1.1875,-0.03125 1.421875,-0.03125 1.78125,-0.03125 2.125,-0.015625 2.46875,0 v -0.3125 c -0.671875,0 -0.703125,-0.046875 -0.703125,-0.4375 z m 0.03125,-1.734375 c 0,-0.3125 -0.234375,-0.53125 -0.515625,-0.53125 -0.3125,0 -0.53125,0.265625 -0.53125,0.53125 0,0.265625 0.21875,0.53125 0.53125,0.53125 0.28125,0 0.515625,-0.21875 0.515625,-0.53125 z m 0,0"
           id="path1032" />
      </symbol>
      <symbol
         overflow="visible"
         id="symbol3208">
        <path
           style="stroke:none"
           d="M 1.09375,-3.421875 V -0.75 c 0,0.4375 -0.109375,0.4375 -0.78125,0.4375 V 0 c 0.359375,-0.015625 0.859375,-0.03125 1.140625,-0.03125 0.25,0 0.765625,0.015625 1.109375,0.03125 v -0.3125 c -0.671875,0 -0.78125,0 -0.78125,-0.4375 V -2.59375 C 1.78125,-3.625 2.5,-4.1875 3.125,-4.1875 c 0.640625,0 0.75,0.53125 0.75,1.109375 V -0.75 c 0,0.4375 -0.109375,0.4375 -0.78125,0.4375 V 0 c 0.34375,-0.015625 0.859375,-0.03125 1.125,-0.03125 0.25,0 0.78125,0.015625 1.109375,0.03125 v -0.3125 c -0.515625,0 -0.765625,0 -0.765625,-0.296875 v -1.90625 c 0,-0.859375 0,-1.15625 -0.3125,-1.515625 -0.140625,-0.171875 -0.46875,-0.375 -1.046875,-0.375 C 2.46875,-4.40625 2,-3.984375 1.71875,-3.359375 V -4.40625 L 0.3125,-4.296875 v 0.3125 c 0.703125,0 0.78125,0.0625 0.78125,0.5625 z m 0,0"
           id="path2618" />
      </symbol>
      <symbol
         overflow="visible"
         id="symbol1083">
        <path
           style="stroke:none"
           d="M 1.109375,-2.515625 C 1.171875,-4 2.015625,-4.25 2.359375,-4.25 c 1.015625,0 1.125,1.34375 1.125,1.734375 z m 0,0.21875 h 2.78125 c 0.21875,0 0.25,0 0.25,-0.21875 0,-0.984375 -0.546875,-1.953125 -1.78125,-1.953125 -1.15625,0 -2.078125,1.03125 -2.078125,2.28125 0,1.328125 1.046875,2.296875 2.1875,2.296875 C 3.6875,0.109375 4.140625,-1 4.140625,-1.1875 4.140625,-1.28125 4.0625,-1.3125 4,-1.3125 c -0.078125,0 -0.109375,0.0625 -0.125,0.140625 -0.34375,1.03125 -1.25,1.03125 -1.34375,1.03125 -0.5,0 -0.890625,-0.296875 -1.125,-0.671875 -0.296875,-0.46875 -0.296875,-1.125 -0.296875,-1.484375 z m 0,0"
           id="path7000" />
      </symbol>
      <symbol
         overflow="visible"
         id="symbol2662">
        <path
           style="stroke:none"
           d="M 1.09375,-3.421875 V -0.75 c 0,0.4375 -0.109375,0.4375 -0.78125,0.4375 V 0 c 0.359375,-0.015625 0.859375,-0.03125 1.140625,-0.03125 0.25,0 0.765625,0.015625 1.109375,0.03125 v -0.3125 c -0.671875,0 -0.78125,0 -0.78125,-0.4375 V -2.59375 C 1.78125,-3.625 2.5,-4.1875 3.125,-4.1875 c 0.640625,0 0.75,0.53125 0.75,1.109375 V -0.75 c 0,0.4375 -0.109375,0.4375 -0.78125,0.4375 V 0 c 0.34375,-0.015625 0.859375,-0.03125 1.125,-0.03125 0.25,0 0.78125,0.015625 1.109375,0.03125 v -0.3125 c -0.65625,0 -0.765625,0 -0.765625,-0.4375 v -1.84375 c 0,-1.03125 0.703125,-1.59375 1.34375,-1.59375 0.625,0 0.734375,0.53125 0.734375,1.109375 V -0.75 c 0,0.4375 -0.109375,0.4375 -0.78125,0.4375 V 0 c 0.34375,-0.015625 0.859375,-0.03125 1.125,-0.03125 0.265625,0 0.78125,0.015625 1.125,0.03125 v -0.3125 c -0.515625,0 -0.765625,0 -0.78125,-0.296875 v -1.90625 c 0,-0.859375 0,-1.15625 -0.3125,-1.515625 -0.140625,-0.171875 -0.46875,-0.375 -1.046875,-0.375 -0.828125,0 -1.28125,0.59375 -1.4375,0.984375 C 4.390625,-4.296875 3.65625,-4.40625 3.203125,-4.40625 2.46875,-4.40625 2,-3.984375 1.71875,-3.359375 V -4.40625 L 0.3125,-4.296875 v 0.3125 c 0.703125,0 0.78125,0.0625 0.78125,0.5625 z m 0,0"
           id="path7129" />
      </symbol>
      <symbol
         overflow="visible"
         id="symbol369">
        <path
           style="stroke:none"
           d="m 1.71875,-3.75 v -0.65625 l -1.4375,0.109375 v 0.3125 c 0.703125,0 0.78125,0.0625 0.78125,0.5 v 4.65625 C 1.0625,1.625 0.953125,1.625 0.28125,1.625 V 1.9375 C 0.625,1.921875 1.140625,1.90625 1.390625,1.90625 c 0.28125,0 0.78125,0.015625 1.125,0.03125 V 1.625 C 1.859375,1.625 1.75,1.625 1.75,1.171875 V -0.59375 c 0.046875,0.171875 0.46875,0.703125 1.21875,0.703125 1.1875,0 2.21875,-0.984375 2.21875,-2.265625 0,-1.265625 -0.953125,-2.25 -2.078125,-2.25 -0.78125,0 -1.203125,0.4375 -1.390625,0.65625 z M 1.75,-1.140625 v -2.21875 C 2.03125,-3.875 2.515625,-4.15625 3.03125,-4.15625 c 0.734375,0 1.328125,0.875 1.328125,2 0,1.203125 -0.6875,2.046875 -1.421875,2.046875 -0.40625,0 -0.78125,-0.203125 -1.046875,-0.609375 C 1.75,-0.921875 1.75,-0.9375 1.75,-1.140625 Z m 0,0"
           id="path407" />
      </symbol>
      <symbol
         overflow="visible"
         id="symbol8061">
        <path
           style="stroke:none"
           d="m 1.71875,-3.984375 h 1.4375 v -0.3125 H 1.71875 V -6.125 h -0.25 c 0,0.8125 -0.296875,1.875 -1.28125,1.921875 v 0.21875 h 0.84375 v 2.75 c 0,1.21875 0.9375,1.34375 1.296875,1.34375 0.703125,0 0.984375,-0.703125 0.984375,-1.34375 v -0.5625 h -0.25 V -1.25 c 0,0.734375 -0.296875,1.109375 -0.671875,1.109375 -0.671875,0 -0.671875,-0.90625 -0.671875,-1.078125 z m 0,0"
           id="path4265" />
      </symbol>
    </g>
    <g
       id="g1660">
      <symbol
         overflow="visible"
         id="symbol4989">
        <path
           style="stroke:none"
           d=""
           id="path7064" />
      </symbol>
      <symbol
         overflow="visible"
         id="symbol9779">
        <path
           style="stroke:none"
           d="m 2.078125,-1.9375 c 0.21875,0.046875 1.03125,0.203125 1.03125,0.921875 0,0.5 -0.34375,0.90625 -1.125,0.90625 -0.84375,0 -1.203125,-0.5625 -1.390625,-1.421875 C 0.5625,-1.65625 0.5625,-1.6875 0.453125,-1.6875 c -0.125,0 -0.125,0.0625 -0.125,0.234375 V -0.125 c 0,0.171875 0,0.234375 0.109375,0.234375 0.046875,0 0.0625,-0.015625 0.25,-0.203125 0.015625,-0.015625 0.015625,-0.03125 0.203125,-0.21875 0.4375,0.40625 0.890625,0.421875 1.09375,0.421875 1.140625,0 1.609375,-0.671875 1.609375,-1.390625 0,-0.515625 -0.296875,-0.828125 -0.421875,-0.9375 C 2.84375,-2.546875 2.453125,-2.625 2.03125,-2.703125 1.46875,-2.8125 0.8125,-2.9375 0.8125,-3.515625 c 0,-0.359375 0.25,-0.765625 1.109375,-0.765625 1.09375,0 1.15625,0.90625 1.171875,1.203125 0,0.09375 0.09375,0.09375 0.109375,0.09375 0.140625,0 0.140625,-0.046875 0.140625,-0.234375 v -1.015625 c 0,-0.15625 0,-0.234375 -0.109375,-0.234375 -0.046875,0 -0.078125,0 -0.203125,0.125 -0.03125,0.03125 -0.125,0.125 -0.171875,0.15625 -0.375,-0.28125 -0.78125,-0.28125 -0.9375,-0.28125 -1.21875,0 -1.59375,0.671875 -1.59375,1.234375 0,0.34375 0.15625,0.625 0.421875,0.84375 0.328125,0.25 0.609375,0.3125 1.328125,0.453125 z m 0,0"
           id="path8596" />
      </symbol>
      <symbol
         overflow="visible"
         id="symbol8329">
        <path
           style="stroke:none"
           d="M 1.765625,-4.40625 0.375,-4.296875 v 0.3125 c 0.640625,0 0.734375,0.0625 0.734375,0.546875 V -0.75 c 0,0.4375 -0.109375,0.4375 -0.78125,0.4375 V 0 C 0.640625,-0.015625 1.1875,-0.03125 1.421875,-0.03125 1.78125,-0.03125 2.125,-0.015625 2.46875,0 v -0.3125 c -0.671875,0 -0.703125,-0.046875 -0.703125,-0.4375 z m 0.03125,-1.734375 c 0,-0.3125 -0.234375,-0.53125 -0.515625,-0.53125 -0.3125,0 -0.53125,0.265625 -0.53125,0.53125 0,0.265625 0.21875,0.53125 0.53125,0.53125 0.28125,0 0.515625,-0.21875 0.515625,-0.53125 z m 0,0"
           id="path4703" />
      </symbol>
      <symbol
         overflow="visible"
         id="symbol2322">
        <path
           style="stroke:none"
           d="M 1.09375,-3.421875 V -0.75 c 0,0.4375 -0.109375,0.4375 -0.78125,0.4375 V 0 c 0.359375,-0.015625 0.859375,-0.03125 1.140625,-0.03125 0.25,0 0.765625,0.015625 1.109375,0.03125 v -0.3125 c -0.671875,0 -0.78125,0 -0.78125,-0.4375 V -2.59375 C 1.78125,-3.625 2.5,-4.1875 3.125,-4.1875 c 0.640625,0 0.75,0.53125 0.75,1.109375 V -0.75 c 0,0.4375 -0.109375,0.4375 -0.78125,0.4375 V 0 c 0.34375,-0.015625 0.859375,-0.03125 1.125,-0.03125 0.25,0 0.78125,0.015625 1.109375,0.03125 v -0.3125 c -0.515625,0 -0.765625,0 -0.765625,-0.296875 v -1.90625 c 0,-0.859375 0,-1.15625 -0.3125,-1.515625 -0.140625,-0.171875 -0.46875,-0.375 -1.046875,-0.375 C 2.46875,-4.40625 2,-3.984375 1.71875,-3.359375 V -4.40625 L 0.3125,-4.296875 v 0.3125 c 0.703125,0 0.78125,0.0625 0.78125,0.5625 z m 0,0"
           id="path7978" />
      </symbol>
      <symbol
         overflow="visible"
         id="symbol3043">
        <path
           style="stroke:none"
           d="M 1.109375,-2.515625 C 1.171875,-4 2.015625,-4.25 2.359375,-4.25 c 1.015625,0 1.125,1.34375 1.125,1.734375 z m 0,0.21875 h 2.78125 c 0.21875,0 0.25,0 0.25,-0.21875 0,-0.984375 -0.546875,-1.953125 -1.78125,-1.953125 -1.15625,0 -2.078125,1.03125 -2.078125,2.28125 0,1.328125 1.046875,2.296875 2.1875,2.296875 C 3.6875,0.109375 4.140625,-1 4.140625,-1.1875 4.140625,-1.28125 4.0625,-1.3125 4,-1.3125 c -0.078125,0 -0.109375,0.0625 -0.125,0.140625 -0.34375,1.03125 -1.25,1.03125 -1.34375,1.03125 -0.5,0 -0.890625,-0.296875 -1.125,-0.671875 -0.296875,-0.46875 -0.296875,-1.125 -0.296875,-1.484375 z m 0,0"
           id="path8653" />
      </symbol>
      <symbol
         overflow="visible"
         id="symbol2993">
        <path
           style="stroke:none"
           d="m 1.171875,-2.171875 c 0,-1.625 0.8125,-2.046875 1.34375,-2.046875 0.09375,0 0.71875,0.015625 1.0625,0.375 -0.40625,0.03125 -0.46875,0.328125 -0.46875,0.453125 0,0.265625 0.1875,0.453125 0.453125,0.453125 0.265625,0 0.46875,-0.15625 0.46875,-0.46875 0,-0.671875 -0.765625,-1.0625 -1.53125,-1.0625 -1.25,0 -2.15625,1.078125 -2.15625,2.3125 0,1.28125 0.984375,2.265625 2.140625,2.265625 1.328125,0 1.65625,-1.203125 1.65625,-1.296875 0,-0.09375 -0.109375,-0.09375 -0.140625,-0.09375 -0.078125,0 -0.109375,0.03125 -0.125,0.09375 -0.28125,0.921875 -0.9375,1.046875 -1.296875,1.046875 -0.53125,0 -1.40625,-0.421875 -1.40625,-2.03125 z m 0,0"
           id="path940" />
      </symbol>
      <symbol
         overflow="visible"
         id="symbol2748">
        <path
           style="stroke:none"
           d="M 4.6875,-2.140625 C 4.6875,-3.40625 3.703125,-4.46875 2.5,-4.46875 c -1.25,0 -2.21875,1.09375 -2.21875,2.328125 0,1.296875 1.03125,2.25 2.203125,2.25 1.203125,0 2.203125,-0.984375 2.203125,-2.25 z m -2.1875,2 c -0.4375,0 -0.875,-0.203125 -1.140625,-0.671875 -0.25,-0.4375 -0.25,-1.046875 -0.25,-1.40625 0,-0.390625 0,-0.921875 0.234375,-1.359375 C 1.609375,-4.03125 2.078125,-4.25 2.484375,-4.25 c 0.4375,0 0.859375,0.21875 1.125,0.65625 0.265625,0.421875 0.265625,1 0.265625,1.375 0,0.359375 0,0.90625 -0.21875,1.34375 C 3.421875,-0.421875 2.984375,-0.140625 2.5,-0.140625 Z m 0,0"
           id="path8502" />
      </symbol>
      <symbol
         overflow="visible"
         id="symbol8456">
        <path
           style="stroke:none"
           d="M 1.09375,-3.421875 V -0.75 c 0,0.4375 -0.109375,0.4375 -0.78125,0.4375 V 0 c 0.359375,-0.015625 0.859375,-0.03125 1.140625,-0.03125 0.25,0 0.765625,0.015625 1.109375,0.03125 v -0.3125 c -0.671875,0 -0.78125,0 -0.78125,-0.4375 V -2.59375 C 1.78125,-3.625 2.5,-4.1875 3.125,-4.1875 c 0.640625,0 0.75,0.53125 0.75,1.109375 V -0.75 c 0,0.4375 -0.109375,0.4375 -0.78125,0.4375 V 0 c 0.34375,-0.015625 0.859375,-0.03125 1.125,-0.03125 0.25,0 0.78125,0.015625 1.109375,0.03125 v -0.3125 c -0.65625,0 -0.765625,0 -0.765625,-0.4375 v -1.84375 c 0,-1.03125 0.703125,-1.59375 1.34375,-1.59375 0.625,0 0.734375,0.53125 0.734375,1.109375 V -0.75 c 0,0.4375 -0.109375,0.4375 -0.78125,0.4375 V 0 c 0.34375,-0.015625 0.859375,-0.03125 1.125,-0.03125 0.265625,0 0.78125,0.015625 1.125,0.03125 v -0.3125 c -0.515625,0 -0.765625,0 -0.78125,-0.296875 v -1.90625 c 0,-0.859375 0,-1.15625 -0.3125,-1.515625 -0.140625,-0.171875 -0.46875,-0.375 -1.046875,-0.375 -0.828125,0 -1.28125,0.59375 -1.4375,0.984375 C 4.390625,-4.296875 3.65625,-4.40625 3.203125,-4.40625 2.46875,-4.40625 2,-3.984375 1.71875,-3.359375 V -4.40625 L 0.3125,-4.296875 v 0.3125 c 0.703125,0 0.78125,0.0625 0.78125,0.5625 z m 0,0"
           id="path6907" />
      </symbol>
      <symbol
         overflow="visible"
         id="symbol2899">
        <path
           style="stroke:none"
           d="m 1.71875,-3.75 v -0.65625 l -1.4375,0.109375 v 0.3125 c 0.703125,0 0.78125,0.0625 0.78125,0.5 v 4.65625 C 1.0625,1.625 0.953125,1.625 0.28125,1.625 V 1.9375 C 0.625,1.921875 1.140625,1.90625 1.390625,1.90625 c 0.28125,0 0.78125,0.015625 1.125,0.03125 V 1.625 C 1.859375,1.625 1.75,1.625 1.75,1.171875 V -0.59375 c 0.046875,0.171875 0.46875,0.703125 1.21875,0.703125 1.1875,0 2.21875,-0.984375 2.21875,-2.265625 0,-1.265625 -0.953125,-2.25 -2.078125,-2.25 -0.78125,0 -1.203125,0.4375 -1.390625,0.65625 z M 1.75,-1.140625 v -2.21875 C 2.03125,-3.875 2.515625,-4.15625 3.03125,-4.15625 c 0.734375,0 1.328125,0.875 1.328125,2 0,1.203125 -0.6875,2.046875 -1.421875,2.046875 -0.40625,0 -0.78125,-0.203125 -1.046875,-0.609375 C 1.75,-0.921875 1.75,-0.9375 1.75,-1.140625 Z m 0,0"
           id="path671" />
      </symbol>
      <symbol
         overflow="visible"
         id="symbol7325">
        <path
           style="stroke:none"
           d="m 1.71875,-3.984375 h 1.4375 v -0.3125 H 1.71875 V -6.125 h -0.25 c 0,0.8125 -0.296875,1.875 -1.28125,1.921875 v 0.21875 h 0.84375 v 2.75 c 0,1.21875 0.9375,1.34375 1.296875,1.34375 0.703125,0 0.984375,-0.703125 0.984375,-1.34375 v -0.5625 h -0.25 V -1.25 c 0,0.734375 -0.296875,1.109375 -0.671875,1.109375 -0.671875,0 -0.671875,-0.90625 -0.671875,-1.078125 z m 0,0"
           id="path2734" />
      </symbol>
    </g>
  </defs>
  <g
     inkscape:label="Layer 1"
     inkscape:groupmode="layer"
     id="layer1"
     transform="translate(-84.017825,-59.504996)">
    <g
       id="g1022"
       transform="matrix(0.36468185,0,0,0.36468185,-30.795708,-25.509641)"
       style="stroke-width:0.72552">
      <g
         id="g1024"
         clip-path="url(#clipPath1028)"
         style="stroke-width:0.72552">
        <g
           id="g1030"
           style="stroke-width:0.72552">
          <path
             d="m 341.12,411.20001 155.20001,-42.88 -23.20001,-83.68 -93.60001,25.43998 z"
             style="fill:#cccccc;fill-opacity:1;fill-rule:evenodd;stroke:none;stroke-width:0.72552"
             id="path77657" />
        </g>
        <g
           id="g1034"
           transform="translate(341.76001,428.48001)"
           style="stroke-width:0.72552">
          <path
             d="M 0,0 V -193.28 H -1.92 V 0 Z m 4.96,-184.8 -5.92,-10.56 -5.92,10.56 c -0.16,0.47999 0,1.12001 0.48,1.28 0.48,0.32 0.96,0.16 1.28,-0.32 l 4.96,-8.96 h -1.76 l 5.12,8.96 c 0.16,0.48 0.8,0.64 1.28,0.32 0.48,-0.15999 0.64,-0.80001 0.48,-1.28 z"
             style="fill:#1a1a1a;fill-opacity:1;fill-rule:nonzero;stroke:none;stroke-width:0.72552"
             id="path1036" />
        </g>
        <g
           id="g1038"
           transform="translate(326.56,410.72)"
           style="stroke-width:0.72552">
          <path
             d="M 0,0 H 260 V 2.08 H 0 Z M 251.36,-4.8 261.92001,1.12 251.36,6.88 c -0.48,0.32 -1.12,0.16 -1.28,-0.32 -0.32001,-0.48 -0.16,-1.12 0.31999,-1.44 l 8.96,-4.96 v 1.76 l -8.96,-4.96 C 249.92,-3.36 249.75999,-4 250.08,-4.48 c 0.16,-0.48 0.8,-0.64 1.28,-0.32 z"
             style="fill:#1a1a1a;fill-opacity:1;fill-rule:nonzero;stroke:none;stroke-width:0.72552"
             id="path1040" />
        </g>
        <g
           id="g1042"
           style="stroke-width:0.72552">
          <path
             d="m 479.04001,358.72 13.75998,-3.84 3.84002,13.76001 -13.76001,3.84 z"
             style="fill:none;stroke:#000000;stroke-width:0.464332;stroke-linecap:butt;stroke-linejoin:miter;stroke-miterlimit:8;stroke-dasharray:none;stroke-opacity:1"
             id="path1044" />
        </g>
        <g
           id="g1046"
           style="stroke-width:0.72552">
          <path
             d="m 459.35999,288.48001 13.76001,-3.84 3.83999,13.59998 -13.75998,4 z"
             style="fill:none;stroke:#000000;stroke-width:0.464332;stroke-linecap:butt;stroke-linejoin:miter;stroke-miterlimit:8;stroke-dasharray:none;stroke-opacity:1"
             id="path1048" />
        </g>
        <g
           id="g1050"
           transform="translate(422.23999,390.23999)"
           style="stroke-width:0.72552">
          <path
             d="m 0,0 0.32,1.92 0.48,2.4 0.48,2.56 0.32,2.4 0.32,2.56 0.16,2.56 0.16,2.399999 v 2.400002 H 1.76 V 16.799999 L 1.6,14.4 1.44,11.84 1.12,9.44 0.8,6.88 0.32,4.48 -0.16,2.08 -0.48,0.16 Z m -2.4,6.56 1.92,-7.04 4.96,5.44 V 5.28 H 4.16 L -0.48,0.16 H 0 l -1.92,6.56 -0.32,0.16 z m 8,6.88 -3.68,6.4 -3.36,-6.56 v -0.32 l 0.48,0.16 3.2,6.080001 H 1.76 L 5.12,13.12 H 5.6 Z"
             style="fill:#4678ab;fill-opacity:1;fill-rule:nonzero;stroke:none;stroke-width:0.72552"
             id="path1052" />
        </g>
        <g
           id="g1054"
           style="stroke-width:0.72552">
          <path
             d="m 341.76001,411.84 60.63998,-16.96 -23.04,-84.64001 z"
             style="fill:#999999;fill-opacity:1;fill-rule:evenodd;stroke:none;stroke-width:0.72552"
             id="path1056" />
        </g>
        <g
           id="g1058"
           transform="translate(340.64001,411.35999)"
           style="stroke-width:0.72552">
          <path
             d="M 0,0 148.8,-41.119999 149.28,-39.52 0.32,1.6 Z m 147.03999,-44.16 9.12001,1.759998 -6.88,6.240002 z"
             style="fill:#4678ab;fill-opacity:1;fill-rule:nonzero;stroke:none;stroke-width:0.72552"
             id="path1060" />
        </g>
        <g
           id="g1062"
           transform="translate(497.60001,368.64001)"
           style="stroke-width:0.72552">
          <path
             d="m 0,0 -21.440001,-77.760002 -1.6,0.480003 L -1.6,0.48 Z m -17.92,-77.760002 -6.24,-6.879997 -1.92,9.120002 z"
             style="fill:#ee6677;fill-opacity:1;fill-rule:nonzero;stroke:none;stroke-width:0.72552"
             id="path1064" />
        </g>
        <g
           id="g1066"
           transform="translate(341.76001,412.48001)"
           style="stroke-width:0.72552">
          <path
             d="m 0,0 35.360001,-93.599998 -1.920002,-0.64 L -1.92,-0.64 Z M 38.720001,-91.199997 37.599998,-102.4 l -8.319997,7.679999 z"
             style="fill:#228833;fill-opacity:1;fill-rule:nonzero;stroke:none;stroke-width:0.72552"
             id="path1068" />
        </g>
        <g
           id="g1070"
           transform="translate(360,368)"
           style="stroke-width:0.72552">
          <path
             d="m 0,0 2.08,1.12 2.4,1.44 2.4,1.44 2.24,1.76 2.08,1.76 2.08,1.92 1.92,2.08 1.920001,2.08 1.759998,2.24 1.600001,2.24 1.44,2.4 1.440001,2.560001 L 24.48,25.6 25.6,28.16 26.719999,30.879999 27.52,33.759998 28,35.84 l 0.48,2.240002 0.479999,2.239998 0.160002,1.760002 -0.480002,0.16 L 28.48,40.48 28,38.240002 27.52,36 27.040001,33.759998 26.24,31.040001 25.280001,28.48 24.16,25.76 22.879999,23.200001 21.440001,20.799999 20,18.4 18.4,16.16 16.639999,13.92 14.88,11.84 12.96,9.76 10.88,8 8.8,6.08 6.56,4.48 4.16,2.88 1.76,1.6 -0.16,0.48 Z M 3.52,6.08 -0.64,0 6.72,-0.16 7.04,0 6.72,0.32 v 0 l -6.88,0.16 0.32,-0.32 3.68,5.6 v 0.48 z m 28.16,29.76 -2.720001,6.880001 -4.32,-5.920002 V 36.48 h 0.32 l 4.160002,5.600002 H 28.639999 L 31.200001,35.68 31.52,35.52 Z"
             style="fill:#008000;fill-opacity:1;fill-rule:nonzero;stroke:none;stroke-width:0.72552"
             id="path1072" />
        </g>
      </g>
    </g>
    <g
       id="g1188"
       transform="matrix(0.36468185,0,0,0.36468185,-30.795708,-25.509641)"
       style="stroke-width:0.72552">
      <g
         id="g1190"
         clip-path="url(#clipPath1194)"
         style="stroke-width:0.72552">
        <g
           id="g1196"
           transform="translate(473.12,283.35999)"
           style="stroke-width:0.72552">
          <path
             d="m 0,0 -86.879997,24 0.479995,1.6 L 0.48,1.6 Z m -87.040001,20.639999 -6.879997,6.24 9.119995,1.76 z"
             style="fill:#ccbb44;fill-opacity:1;fill-rule:nonzero;stroke:none;stroke-width:0.72552"
             id="path1198" />
        </g>
        <g
           id="g1200"
           transform="translate(374.07999,333.44)"
           style="stroke-width:0.72552">
          <path
             d="M 0,0 3.84,1.76 8,4 l 4,2.4 3.84,2.56 3.68,2.88 3.520001,3.04 3.359999,3.2 3.040001,3.360001 3.039999,3.519998 2.720001,3.68 2.559997,3.840001 2.400002,4 2.080002,4.159999 1.919998,4.16 0.799999,2.240002 0.799999,2.239998 0.800003,2.240001 0.48,1.759999 -0.48,0.16 L 46.080002,51.68 45.279999,49.439999 44.48,47.200001 l -0.8,-2.080002 -1.920002,-4.32 -2.079998,-4.16 -2.400001,-3.84 -2.399998,-3.84 L 32,25.280001 29.120001,21.76 25.92,18.4 22.719999,15.2 19.200001,12.16 15.52,9.44 11.68,6.88 7.68,4.48 3.68,2.24 -0.16,0.48 Z M 3.84,5.92 -0.64,0 6.72,-0.48 7.04,-0.32 6.72,0 -0.16,0.48 0.16,0.16 l 4,5.44 v 0.48 z m 44.64,40.800001 -1.439999,7.039997 -5.280003,-5.119999 V 48.32 h 0.320004 l 4.959999,4.799999 -0.48,0.16 L 48,46.560001 48.32,46.400002 Z"
             style="fill:#ee6677;fill-opacity:1;fill-rule:nonzero;stroke:none;stroke-width:0.72552"
             id="path1202" />
        </g>
      </g>
    </g>
    <g
       id="g2154"
       transform="matrix(0.26458333,0,0,0.26458333,0.71851653,-2.1746699)" />
    <g
       inkscape:label=""
       transform="matrix(0.81888374,0,0,0.81888374,19.58387,25.766113)"
       id="g57495"
       style="fill:#228833;fill-opacity:1;stroke-width:1.22118">
      <g
         id="g802"
         style="fill:#228833;fill-opacity:1;stroke-width:1.22118">
        <g
           style="fill:#228833;fill-opacity:1;stroke-width:1.22118"
           id="g5253">
          <use
             xlink:href="#symbol8988"
             x="91.925003"
             y="81.962997"
             id="use494"
             width="100%"
             height="100%"
             style="fill:#228833;fill-opacity:1;stroke-width:1.22118" />
        </g>
        <g
           style="fill:#228833;fill-opacity:1;stroke-width:1.22118"
           id="g5759">
          <use
             xlink:href="#symbol3087"
             x="98.332001"
             y="83.457001"
             id="use3271"
             width="100%"
             height="100%"
             style="fill:#228833;fill-opacity:1;stroke-width:1.22118" />
        </g>
      </g>
    </g>
    <g
       inkscape:label=""
       transform="matrix(0.870839,0,0,0.870839,26.314772,41.301431)"
       id="g61343"
       style="fill:#228833;fill-opacity:1;stroke-width:1.14831">
      <g
         id="g9788"
         style="fill:#228833;fill-opacity:1;stroke-width:1.14831">
        <g
           style="fill:#228833;fill-opacity:1;stroke-width:1.14831"
           id="g3938">
          <use
             xlink:href="#symbol8378"
             x="91.925003"
             y="81.962997"
             id="use650"
             width="100%"
             height="100%"
             style="fill:#228833;fill-opacity:1;stroke-width:1.14831" />
        </g>
        <g
           style="fill:#228833;fill-opacity:1;stroke-width:1.14831"
           id="g7480">
          <use
             xlink:href="#symbol7543"
             x="98.485374"
             y="81.962997"
             id="use6236"
             width="100%"
             height="100%"
             style="fill:#228833;fill-opacity:1;stroke-width:1.14831" />
        </g>
      </g>
    </g>
    <g
       inkscape:label=""
       transform="matrix(0.88197027,0,0,0.88197027,45.234137,49.683662)"
       id="g61892"
       style="fill:#4678ab;fill-opacity:1;stroke-width:1.13382">
      <g
         id="g3265"
         style="fill:#4678ab;fill-opacity:1;stroke-width:1.13382">
        <g
           style="fill:#4678ab;fill-opacity:1;stroke-width:1.13382"
           id="g3360">
          <use
             xlink:href="#symbol7022"
             x="91.925003"
             y="81.962997"
             id="use4539"
             width="100%"
             height="100%"
             style="fill:#4678ab;fill-opacity:1;stroke-width:1.13382" />
        </g>
        <g
           style="fill:#4678ab;fill-opacity:1;stroke-width:1.13382"
           id="g7766">
          <use
             xlink:href="#symbol1545"
             x="98.485374"
             y="81.962997"
             id="use1817"
             width="100%"
             height="100%"
             style="fill:#4678ab;fill-opacity:1;stroke-width:1.13382" />
        </g>
        <g
           style="fill:#4678ab;fill-opacity:1;stroke-width:1.13382"
           id="g9318">
          <use
             xlink:href="#symbol2704"
             x="104.295"
             y="81.962997"
             id="use6089"
             width="100%"
             height="100%"
             style="fill:#4678ab;fill-opacity:1;stroke-width:1.13382" />
        </g>
        <g
           style="fill:#4678ab;fill-opacity:1;stroke-width:1.13382"
           id="g4004">
          <use
             xlink:href="#symbol2022"
             x="114.258"
             y="81.962997"
             id="use7920"
             width="100%"
             height="100%"
             style="fill:#4678ab;fill-opacity:1;stroke-width:1.13382" />
        </g>
      </g>
    </g>
    <g
       inkscape:label=""
       transform="matrix(0.87152754,0,0,0.87152754,36.423396,30.545636)"
       id="g64792"
       style="fill:#ee6677;fill-opacity:1;stroke-width:1.14741">
      <g
         id="g2234"
         style="fill:#ee6677;fill-opacity:1;stroke-width:1.14741">
        <g
           style="fill:#ee6677;fill-opacity:1;stroke-width:1.14741"
           id="g631">
          <use
             xlink:href="#symbol9784"
             x="91.925003"
             y="81.962997"
             id="use453"
             width="100%"
             height="100%"
             style="fill:#ee6677;fill-opacity:1;stroke-width:1.14741" />
        </g>
      </g>
    </g>
    <g
       inkscape:label=""
       transform="matrix(0.88584167,0,0,0.88584167,70.63175,41.173883)"
       id="g65389"
       style="fill:#4678ab;fill-opacity:1;stroke-width:1.12887">
      <g
         id="g7339"
         style="fill:#4678ab;fill-opacity:1;stroke-width:1.12887">
        <g
           style="fill:#4678ab;fill-opacity:1;stroke-width:1.12887"
           id="g2319">
          <use
             xlink:href="#symbol7309"
             x="91.925003"
             y="81.962997"
             id="use8151"
             width="100%"
             height="100%"
             style="fill:#4678ab;fill-opacity:1;stroke-width:1.12887" />
        </g>
        <g
           style="fill:#4678ab;fill-opacity:1;stroke-width:1.12887"
           id="g9684">
          <use
             xlink:href="#symbol457"
             x="97.430336"
             y="81.962997"
             id="use960"
             width="100%"
             height="100%"
             style="fill:#4678ab;fill-opacity:1;stroke-width:1.12887" />
        </g>
      </g>
    </g>
    <g
       inkscape:label=""
       transform="matrix(0.8805406,0,0,0.8805406,124.27746,103.33703)"
       id="g66023"
       style="fill:#ee6677;fill-opacity:1;stroke-width:1.13566">
      <g
         id="g5056"
         transform="translate(-65.732422,-92.397461)"
         style="fill:#ee6677;fill-opacity:1;stroke-width:1.13566">
        <g
           style="fill:#ee6677;fill-opacity:1;stroke-width:1.13566"
           id="g548">
          <use
             xlink:href="#symbol5289"
             x="91.925003"
             y="81.962997"
             id="use8016"
             width="100%"
             height="100%"
             style="fill:#ee6677;fill-opacity:1;stroke-width:1.13566" />
          <use
             xlink:href="#symbol3511"
             x="96.236816"
             y="81.962997"
             id="use4564"
             width="100%"
             height="100%"
             style="fill:#ee6677;fill-opacity:1;stroke-width:1.13566" />
        </g>
        <g
           style="fill:#ee6677;fill-opacity:1;stroke-width:1.13566"
           id="g2453">
          <use
             xlink:href="#symbol6347"
             x="102.79719"
             y="81.962997"
             id="use4305"
             width="100%"
             height="100%"
             style="fill:#ee6677;fill-opacity:1;stroke-width:1.13566" />
        </g>
      </g>
    </g>
    <g
       inkscape:label=""
       transform="matrix(0.88027414,0,0,0.88027414,27.2085,6.7532588)"
       id="g66704"
       style="fill:#ccbb44;fill-opacity:1;stroke-width:1.13601">
      <g
         id="g7955"
         style="fill:#ccbb44;fill-opacity:1;stroke-width:1.13601">
        <g
           style="fill:#ccbb44;fill-opacity:1;stroke-width:1.13601"
           id="g5573">
          <use
             xlink:href="#symbol1352"
             x="91.925003"
             y="81.962997"
             id="use9222"
             width="100%"
             height="100%"
             style="fill:#ccbb44;fill-opacity:1;stroke-width:1.13601" />
          <use
             xlink:href="#symbol8282"
             x="100.67216"
             y="81.962997"
             id="use2225"
             width="100%"
             height="100%"
             style="fill:#ccbb44;fill-opacity:1;stroke-width:1.13601" />
        </g>
        <g
           style="fill:#ccbb44;fill-opacity:1;stroke-width:1.13601"
           id="g5480">
          <use
             xlink:href="#symbol4076"
             x="107.231"
             y="77.848999"
             id="use1286"
             width="100%"
             height="100%"
             style="fill:#ccbb44;fill-opacity:1;stroke-width:1.13601" />
        </g>
        <g
           style="fill:#ccbb44;fill-opacity:1;stroke-width:1.13601"
           id="g9200">
          <use
             xlink:href="#symbol4375"
             x="111.701"
             y="81.962997"
             id="use5441"
             width="100%"
             height="100%"
             style="fill:#ccbb44;fill-opacity:1;stroke-width:1.13601" />
        </g>
      </g>
    </g>
    <g
       inkscape:label=""
       transform="matrix(0.59235462,0,0,0.59235462,84.296087,83.828284)"
       id="g77759"
       style="stroke-width:1.68817">
      <g
         id="g1356"
         style="stroke-width:1.68817">
        <g
           style="fill:#000000;fill-opacity:1;stroke-width:1.68817"
           id="g5394">
          <use
             xlink:href="#symbol3421"
             x="91.925003"
             y="81.962997"
             id="use2801"
             width="100%"
             height="100%"
             style="stroke-width:1.68817" />
          <use
             xlink:href="#symbol8809"
             x="96.352379"
             y="81.962997"
             id="use8819"
             width="100%"
             height="100%"
             style="stroke-width:1.68817" />
          <use
             xlink:href="#symbol9519"
             x="101.33368"
             y="81.962997"
             id="use9469"
             width="100%"
             height="100%"
             style="stroke-width:1.68817" />
          <use
             xlink:href="#symbol7651"
             x="105.26293"
             y="81.962997"
             id="use6528"
             width="100%"
             height="100%"
             style="stroke-width:1.68817" />
          <use
             xlink:href="#symbol3208"
             x="108.03054"
             y="81.962997"
             id="use264"
             width="100%"
             height="100%"
             style="stroke-width:1.68817" />
          <use
             xlink:href="#symbol1083"
             x="113.56576"
             y="81.962997"
             id="use7154"
             width="100%"
             height="100%"
             style="stroke-width:1.68817" />
        </g>
        <g
           style="fill:#000000;fill-opacity:1;stroke-width:1.68817"
           id="g7511">
          <use
             xlink:href="#symbol3421"
             x="121.31068"
             y="81.962997"
             id="use5403"
             width="100%"
             height="100%"
             style="stroke-width:1.68817" />
          <use
             xlink:href="#symbol8809"
             x="125.73807"
             y="81.962997"
             id="use8056"
             width="100%"
             height="100%"
             style="stroke-width:1.68817" />
          <use
             xlink:href="#symbol2662"
             x="130.71936"
             y="81.962997"
             id="use758"
             width="100%"
             height="100%"
             style="stroke-width:1.68817" />
        </g>
        <g
           style="fill:#000000;fill-opacity:1;stroke-width:1.68817"
           id="g24">
          <use
             xlink:href="#symbol369"
             x="139.03116"
             y="81.962997"
             id="use8942"
             width="100%"
             height="100%"
             style="stroke-width:1.68817" />
        </g>
        <g
           style="fill:#000000;fill-opacity:1;stroke-width:1.68817"
           id="g4156">
          <use
             xlink:href="#symbol8809"
             x="144.83537"
             y="81.962997"
             id="use6479"
             width="100%"
             height="100%"
             style="stroke-width:1.68817" />
          <use
             xlink:href="#symbol3208"
             x="149.81667"
             y="81.962997"
             id="use77751"
             width="100%"
             height="100%"
             style="stroke-width:1.68817" />
          <use
             xlink:href="#symbol1083"
             x="155.3519"
             y="81.962997"
             id="use3451"
             width="100%"
             height="100%"
             style="stroke-width:1.68817" />
          <use
             xlink:href="#symbol3208"
             x="159.77927"
             y="81.962997"
             id="use1654"
             width="100%"
             height="100%"
             style="stroke-width:1.68817" />
        </g>
        <g
           style="fill:#000000;fill-opacity:1;stroke-width:1.68817"
           id="g6436">
          <use
             xlink:href="#symbol8061"
             x="165.03554"
             y="81.962997"
             id="use1343"
             width="100%"
             height="100%"
             style="stroke-width:1.68817" />
        </g>
      </g>
    </g>
    <g
       inkscape:label=""
       transform="matrix(0,-0.59235462,0.59235462,0,39.418781,153.80093)"
       id="g78669"
       style="stroke-width:1.68817">
      <g
         id="g3266"
         style="stroke-width:1.68817">
        <g
           style="fill:#000000;fill-opacity:1;stroke-width:1.68817"
           id="g1886">
          <use
             xlink:href="#symbol9779"
             x="91.925003"
             y="81.962997"
             id="use2498"
             width="100%"
             height="100%"
             style="stroke-width:1.68817" />
          <use
             xlink:href="#symbol8329"
             x="95.854248"
             y="81.962997"
             id="use6884"
             width="100%"
             height="100%"
             style="stroke-width:1.68817" />
          <use
             xlink:href="#symbol2322"
             x="98.621857"
             y="81.962997"
             id="use8901"
             width="100%"
             height="100%"
             style="stroke-width:1.68817" />
          <use
             xlink:href="#symbol3043"
             x="104.15708"
             y="81.962997"
             id="use8916"
             width="100%"
             height="100%"
             style="stroke-width:1.68817" />
        </g>
        <g
           style="fill:#000000;fill-opacity:1;stroke-width:1.68817"
           id="g3931">
          <use
             xlink:href="#symbol2993"
             x="111.90201"
             y="81.962997"
             id="use9208"
             width="100%"
             height="100%"
             style="stroke-width:1.68817" />
          <use
             xlink:href="#symbol2748"
             x="116.32938"
             y="81.962997"
             id="use6849"
             width="100%"
             height="100%"
             style="stroke-width:1.68817" />
          <use
             xlink:href="#symbol8456"
             x="121.31068"
             y="81.962997"
             id="use5090"
             width="100%"
             height="100%"
             style="stroke-width:1.68817" />
          <use
             xlink:href="#symbol2899"
             x="129.61252"
             y="81.962997"
             id="use5486"
             width="100%"
             height="100%"
             style="stroke-width:1.68817" />
        </g>
        <g
           style="fill:#000000;fill-opacity:1;stroke-width:1.68817"
           id="g9549">
          <use
             xlink:href="#symbol2748"
             x="135.4267"
             y="81.962997"
             id="use9834"
             width="100%"
             height="100%"
             style="stroke-width:1.68817" />
          <use
             xlink:href="#symbol2322"
             x="140.40799"
             y="81.962997"
             id="use9259"
             width="100%"
             height="100%"
             style="stroke-width:1.68817" />
          <use
             xlink:href="#symbol3043"
             x="145.94321"
             y="81.962997"
             id="use8888"
             width="100%"
             height="100%"
             style="stroke-width:1.68817" />
          <use
             xlink:href="#symbol2322"
             x="150.37059"
             y="81.962997"
             id="use8583"
             width="100%"
             height="100%"
             style="stroke-width:1.68817" />
        </g>
        <g
           style="fill:#000000;fill-opacity:1;stroke-width:1.68817"
           id="g9063">
          <use
             xlink:href="#symbol7325"
             x="155.62686"
             y="81.962997"
             id="use7762"
             width="100%"
             height="100%"
             style="stroke-width:1.68817" />
        </g>
      </g>
    </g>
  </g>
</svg>
